<svg width="328" height="86" viewBox="0 0 328 86" fill="none" xmlns="http://www.w3.org/2000/svg">
<path d="M1 1.6001L326.6 1.60012" stroke="#C5C5C5" stroke-opacity="0.5" stroke-width="1.6" stroke-linecap="round"/>
<path d="M1 84.3999L326.6 84.3999" stroke="#C5C5C5" stroke-opacity="0.5" stroke-width="1.6" stroke-linecap="round"/>
<path d="M45.0312 51.3999H48.1953L49.6016 47.0288H55.8594L57.2773 51.3999H60.4414L54.4414 34.4897H51.0312L45.0312 51.3999ZM52.6367 37.6304H52.8359L55.1094 44.6968H50.3633L52.6367 37.6304ZM70.168 51.6108C73.3789 51.6108 75.4297 49.0679 75.4297 45.0132V44.9897C75.4297 40.9116 73.4141 38.3804 70.168 38.3804C68.4102 38.3804 66.9453 39.2476 66.2773 40.6304H66.0781V33.6343H63.1602V51.3999H66.0781V49.396H66.2773C66.9805 50.7905 68.375 51.6108 70.168 51.6108ZM69.2539 49.1499C67.2734 49.1499 66.043 47.5796 66.043 45.0132V44.9897C66.043 42.4233 67.2734 40.8413 69.2539 40.8413C71.2461 40.8413 72.4531 42.4116 72.4531 44.9897V45.0132C72.4531 47.5913 71.2461 49.1499 69.2539 49.1499ZM83.8789 51.6577C87.7109 51.6577 90.043 49.1499 90.043 45.0015V44.978C90.043 40.853 87.6992 38.3452 83.8789 38.3452C80.0703 38.3452 77.7148 40.8647 77.7148 44.978V45.0015C77.7148 49.1499 80.0352 51.6577 83.8789 51.6577ZM83.8789 49.2905C81.8516 49.2905 80.6914 47.7085 80.6914 45.0132V44.9897C80.6914 42.2944 81.8516 40.7007 83.8789 40.7007C85.8945 40.7007 87.0547 42.2944 87.0547 44.9897V45.0132C87.0547 47.7085 85.9062 49.2905 83.8789 49.2905ZM97.2148 51.6577C99.0664 51.6577 100.367 50.8257 100.965 49.4546H101.164V51.3999H104.082V38.5913H101.164V46.0562C101.164 47.978 100.156 49.1968 98.2695 49.1968C96.5117 49.1968 95.7734 48.189 95.7734 46.2085V38.5913H92.8555V46.8765C92.8555 49.9233 94.332 51.6577 97.2148 51.6577ZM112.684 51.4585C113.246 51.4585 113.785 51.4116 114.207 51.3296V49.0796C113.855 49.1147 113.633 49.1265 113.223 49.1265C112.004 49.1265 111.5 48.5874 111.5 47.3101V40.853H114.207V38.5913H111.5V35.4507H108.535V38.5913H106.543V40.853H108.535V48.0015C108.535 50.4741 109.742 51.4585 112.684 51.4585Z" fill="#353340"/>
<path d="M130.051 50.6335L136.103 46.0101C136.963 45.3527 136.963 44.2476 136.103 43.5902L130.051 38.9668" stroke="#353340" stroke-width="1.6" stroke-linecap="round"/>
</svg>
