<svg width="1232" height="501" viewBox="0 0 1232 501" fill="none" xmlns="http://www.w3.org/2000/svg">
<path d="M37.709 496H47.0449V493.568H40.6582V490.004H46.6836V487.738H40.6582V484.34H47.0449V481.908H37.709V496ZM49.0859 496H52.0938L54.0957 492.445H54.2715L56.2832 496H59.4375L56.0293 490.561L59.418 485.248H56.3125L54.4082 488.812H54.2324L52.3281 485.248H49.0566L52.4551 490.678L49.0859 496ZM61.4883 499.564H64.3398V494.281H64.5156C65.0625 495.453 66.2637 496.166 67.7383 496.166C70.4629 496.166 72.1035 494.086 72.1035 490.629V490.609C72.1035 487.182 70.4238 485.072 67.7383 485.072C66.2148 485.072 65.0723 485.756 64.5156 486.908H64.3398V485.248H61.4883V499.564ZM66.7617 493.803C65.2676 493.803 64.3105 492.602 64.3105 490.629V490.609C64.3105 488.637 65.2578 487.436 66.7617 487.436C68.2754 487.436 69.2031 488.637 69.2031 490.609V490.629C69.2031 492.602 68.2656 493.803 66.7617 493.803ZM74.5352 496H77.3867V481.137H74.5352V496ZM85.1113 496.225C88.4219 496.225 90.4141 494.135 90.4141 490.629V490.609C90.4141 487.133 88.3926 485.014 85.1113 485.014C81.8301 485.014 79.8086 487.143 79.8086 490.609V490.629C79.8086 494.125 81.8008 496.225 85.1113 496.225ZM85.1113 493.988C83.5879 493.988 82.7285 492.748 82.7285 490.629V490.609C82.7285 488.51 83.5977 487.25 85.1113 487.25C86.6152 487.25 87.4941 488.51 87.4941 490.609V490.629C87.4941 492.748 86.625 493.988 85.1113 493.988ZM92.7383 496H95.5898V489.984C95.5898 488.461 96.6152 487.533 98.2363 487.533C98.6758 487.533 99.1152 487.602 99.5449 487.699V485.209C99.2617 485.131 98.8613 485.072 98.4805 485.072C97.084 485.072 96.1074 485.756 95.7656 486.918H95.5898V485.248H92.7383V496ZM105.922 496.225C109.066 496.225 110.453 494.408 110.785 493.061L110.805 492.963H108.148L108.119 493.021C107.924 493.432 107.23 494.096 105.98 494.096C104.467 494.096 103.52 493.07 103.49 491.303H110.893V490.414C110.893 487.162 108.939 485.014 105.805 485.014C102.67 485.014 100.668 487.211 100.668 490.629V490.639C100.668 494.086 102.65 496.225 105.922 496.225ZM105.854 487.152C107.094 487.152 107.982 487.953 108.158 489.516H103.52C103.695 487.992 104.613 487.152 105.854 487.152ZM123.109 496.225C126.254 496.225 127.641 494.408 127.973 493.061L127.992 492.963H125.336L125.307 493.021C125.111 493.432 124.418 494.096 123.168 494.096C121.654 494.096 120.707 493.07 120.678 491.303H128.08V490.414C128.08 487.162 126.127 485.014 122.992 485.014C119.857 485.014 117.855 487.211 117.855 490.629V490.639C117.855 494.086 119.838 496.225 123.109 496.225ZM123.041 487.152C124.281 487.152 125.17 487.953 125.346 489.516H120.707C120.883 487.992 121.801 487.152 123.041 487.152ZM129.184 496H132.191L134.193 492.445H134.369L136.381 496H139.535L136.127 490.561L139.516 485.248H136.41L134.506 488.812H134.33L132.426 485.248H129.154L132.553 490.678L129.184 496ZM143.041 483.598C143.92 483.598 144.643 482.895 144.643 482.016C144.643 481.127 143.92 480.424 143.041 480.424C142.162 480.424 141.43 481.127 141.43 482.016C141.43 482.895 142.162 483.598 143.041 483.598ZM141.605 496H144.457V485.248H141.605V496ZM151.605 496.225C154.359 496.225 156.322 494.838 156.322 492.709V492.699C156.322 491.107 155.316 490.209 153.168 489.75L151.381 489.369C150.268 489.125 149.867 488.793 149.867 488.217V488.207C149.867 487.484 150.57 487.025 151.557 487.025C152.621 487.025 153.256 487.562 153.412 488.139L153.422 488.188H156.068V488.148C155.951 486.42 154.389 485.014 151.566 485.014C148.881 485.014 147.084 486.361 147.084 488.383V488.393C147.084 490.004 148.1 491.01 150.15 491.449L151.947 491.83C153.041 492.074 153.471 492.436 153.471 493.012V493.031C153.471 493.744 152.729 494.213 151.635 494.213C150.512 494.213 149.857 493.734 149.633 493.07L149.613 493.031H146.811L146.82 493.07C147.025 494.916 148.686 496.225 151.605 496.225ZM163.061 496.039C163.607 496.039 164.135 495.98 164.486 495.912V493.793C164.213 493.822 164.018 493.842 163.646 493.842C162.68 493.842 162.27 493.412 162.27 492.445V487.396H164.486V485.248H162.27V482.68H159.389V485.248H157.729V487.396H159.389V493.1C159.389 495.189 160.443 496.039 163.061 496.039ZM168.314 483.598C169.193 483.598 169.916 482.895 169.916 482.016C169.916 481.127 169.193 480.424 168.314 480.424C167.436 480.424 166.703 481.127 166.703 482.016C166.703 482.895 167.436 483.598 168.314 483.598ZM166.879 496H169.73V485.248H166.879V496ZM172.602 496H175.453V489.779C175.453 488.324 176.254 487.377 177.572 487.377C178.92 487.377 179.545 488.178 179.545 489.691V496H182.396V489.047C182.396 486.479 181.107 485.014 178.715 485.014C177.182 485.014 176.117 485.746 175.629 486.908H175.453V485.248H172.602V496ZM189.906 499.779C193.158 499.779 195.219 498.188 195.219 495.668V485.248H192.367V487.006H192.23C191.654 485.795 190.502 485.072 189.027 485.072C186.273 485.072 184.604 487.201 184.604 490.365V490.385C184.604 493.441 186.273 495.531 188.979 495.531C190.473 495.531 191.605 494.916 192.201 493.783H192.377V495.785C192.377 497.035 191.488 497.748 189.965 497.748C188.695 497.748 187.953 497.318 187.797 496.693L187.787 496.654H184.965V496.703C185.199 498.529 186.928 499.779 189.906 499.779ZM189.945 493.344C188.402 493.344 187.523 492.143 187.523 490.375V490.355C187.523 488.588 188.412 487.387 189.945 487.387C191.479 487.387 192.406 488.588 192.406 490.355V490.375C192.406 492.143 191.488 493.344 189.945 493.344ZM207.504 496.225C210.258 496.225 212.221 494.838 212.221 492.709V492.699C212.221 491.107 211.215 490.209 209.066 489.75L207.279 489.369C206.166 489.125 205.766 488.793 205.766 488.217V488.207C205.766 487.484 206.469 487.025 207.455 487.025C208.52 487.025 209.154 487.562 209.311 488.139L209.32 488.188H211.967V488.148C211.85 486.42 210.287 485.014 207.465 485.014C204.779 485.014 202.982 486.361 202.982 488.383V488.393C202.982 490.004 203.998 491.01 206.049 491.449L207.846 491.83C208.939 492.074 209.369 492.436 209.369 493.012V493.031C209.369 493.744 208.627 494.213 207.533 494.213C206.41 494.213 205.756 493.734 205.531 493.07L205.512 493.031H202.709L202.719 493.07C202.924 494.916 204.584 496.225 207.504 496.225ZM214.555 499.564H217.406V494.281H217.582C218.129 495.453 219.33 496.166 220.805 496.166C223.529 496.166 225.17 494.086 225.17 490.629V490.609C225.17 487.182 223.49 485.072 220.805 485.072C219.281 485.072 218.139 485.756 217.582 486.908H217.406V485.248H214.555V499.564ZM219.828 493.803C218.334 493.803 217.377 492.602 217.377 490.629V490.609C217.377 488.637 218.324 487.436 219.828 487.436C221.342 487.436 222.27 488.637 222.27 490.609V490.629C222.27 492.602 221.332 493.803 219.828 493.803ZM230.434 496.166C231.84 496.166 232.973 495.57 233.52 494.574H233.695V496H236.508V488.656C236.508 486.361 234.896 485.014 232.045 485.014C229.34 485.014 227.562 486.264 227.338 488.148L227.328 488.236H229.965L229.984 488.197C230.209 487.562 230.863 487.201 231.889 487.201C233.061 487.201 233.695 487.729 233.695 488.656V489.545L231.098 489.701C228.422 489.857 226.928 490.99 226.928 492.924V492.943C226.928 494.896 228.383 496.166 230.434 496.166ZM229.711 492.768V492.748C229.711 491.967 230.307 491.508 231.527 491.43L233.695 491.293V492.084C233.695 493.217 232.709 494.086 231.391 494.086C230.404 494.086 229.711 493.588 229.711 492.768ZM244.037 496.225C246.84 496.225 248.52 494.721 248.812 492.377L248.822 492.318H246.186L246.166 492.357C245.912 493.432 245.219 493.988 244.047 493.988C242.523 493.988 241.674 492.787 241.674 490.609V490.59C241.674 488.441 242.514 487.25 244.047 487.25C245.268 487.25 245.98 487.934 246.166 488.979L246.176 488.998H248.832V488.969C248.578 486.566 246.889 485.014 244.037 485.014C240.668 485.014 238.773 487.055 238.773 490.59V490.609C238.773 494.184 240.678 496.225 244.037 496.225ZM255.785 496.225C258.93 496.225 260.316 494.408 260.648 493.061L260.668 492.963H258.012L257.982 493.021C257.787 493.432 257.094 494.096 255.844 494.096C254.33 494.096 253.383 493.07 253.354 491.303H260.756V490.414C260.756 487.162 258.803 485.014 255.668 485.014C252.533 485.014 250.531 487.211 250.531 490.629V490.639C250.531 494.086 252.514 496.225 255.785 496.225ZM255.717 487.152C256.957 487.152 257.846 487.953 258.021 489.516H253.383C253.559 487.992 254.477 487.152 255.717 487.152ZM267.367 496.225C270.121 496.225 272.084 494.838 272.084 492.709V492.699C272.084 491.107 271.078 490.209 268.93 489.75L267.143 489.369C266.029 489.125 265.629 488.793 265.629 488.217V488.207C265.629 487.484 266.332 487.025 267.318 487.025C268.383 487.025 269.018 487.562 269.174 488.139L269.184 488.188H271.83V488.148C271.713 486.42 270.15 485.014 267.328 485.014C264.643 485.014 262.846 486.361 262.846 488.383V488.393C262.846 490.004 263.861 491.01 265.912 491.449L267.709 491.83C268.803 492.074 269.232 492.436 269.232 493.012V493.031C269.232 493.744 268.49 494.213 267.396 494.213C266.273 494.213 265.619 493.734 265.395 493.07L265.375 493.031H262.572L262.582 493.07C262.787 494.916 264.447 496.225 267.367 496.225Z" fill="#353340" fill-opacity="0.6"/>
<path d="M7.87109 19.3613C12.0312 19.3613 14.6484 16.5098 14.6484 11.959V11.9395C14.6484 7.38867 12.0215 4.54688 7.87109 4.54688C3.7207 4.54688 1.08398 7.37891 1.08398 11.9395V11.959C1.08398 16.5098 3.68164 19.3613 7.87109 19.3613ZM7.87109 16.8613C5.54688 16.8613 4.0918 14.9375 4.0918 11.959V11.9395C4.0918 8.95117 5.57617 7.04688 7.87109 7.04688C10.1562 7.04688 11.6406 8.95117 11.6406 11.9395V11.959C11.6406 14.9375 10.166 16.8613 7.87109 16.8613ZM17.168 19H20.0195V12.9844C20.0195 11.4609 21.0449 10.5332 22.666 10.5332C23.1055 10.5332 23.5449 10.6016 23.9746 10.6992V8.20898C23.6914 8.13086 23.291 8.07227 22.9102 8.07227C21.5137 8.07227 20.5371 8.75586 20.1953 9.91797H20.0195V8.24805H17.168V19ZM30.3711 22.7793C33.623 22.7793 35.6836 21.1875 35.6836 18.668V8.24805H32.832V10.0059H32.6953C32.1191 8.79492 30.9668 8.07227 29.4922 8.07227C26.7383 8.07227 25.0684 10.2012 25.0684 13.3652V13.3848C25.0684 16.4414 26.7383 18.5312 29.4434 18.5312C30.9375 18.5312 32.0703 17.916 32.666 16.7832H32.8418V18.7852C32.8418 20.0352 31.9531 20.748 30.4297 20.748C29.1602 20.748 28.418 20.3184 28.2617 19.6934L28.252 19.6543H25.4297V19.7031C25.6641 21.5293 27.3926 22.7793 30.3711 22.7793ZM30.4102 16.3438C28.8672 16.3438 27.9883 15.1426 27.9883 13.375V13.3555C27.9883 11.5879 28.877 10.3867 30.4102 10.3867C31.9434 10.3867 32.8711 11.5879 32.8711 13.3555V13.375C32.8711 15.1426 31.9531 16.3438 30.4102 16.3438ZM41.4648 19.166C42.8711 19.166 44.0039 18.5703 44.5508 17.5742H44.7266V19H47.5391V11.6562C47.5391 9.36133 45.9277 8.01367 43.0762 8.01367C40.3711 8.01367 38.5938 9.26367 38.3691 11.1484L38.3594 11.2363H40.9961L41.0156 11.1973C41.2402 10.5625 41.8945 10.2012 42.9199 10.2012C44.0918 10.2012 44.7266 10.7285 44.7266 11.6562V12.5449L42.1289 12.7012C39.4531 12.8574 37.959 13.9902 37.959 15.9238V15.9434C37.959 17.8965 39.4141 19.166 41.4648 19.166ZM40.7422 15.7676V15.748C40.7422 14.9668 41.3379 14.5078 42.5586 14.4297L44.7266 14.293V15.084C44.7266 16.2168 43.7402 17.0859 42.4219 17.0859C41.4355 17.0859 40.7422 16.5879 40.7422 15.7676ZM50.332 19H53.1836V12.7793C53.1836 11.3242 53.9844 10.377 55.3027 10.377C56.6504 10.377 57.2754 11.1777 57.2754 12.6914V19H60.127V12.0469C60.127 9.47852 58.8379 8.01367 56.4453 8.01367C54.9121 8.01367 53.8477 8.74609 53.3594 9.9082H53.1836V8.24805H50.332V19ZM64.3457 6.59766C65.2246 6.59766 65.9473 5.89453 65.9473 5.01562C65.9473 4.12695 65.2246 3.42383 64.3457 3.42383C63.4668 3.42383 62.7344 4.12695 62.7344 5.01562C62.7344 5.89453 63.4668 6.59766 64.3457 6.59766ZM62.9102 19H65.7617V8.24805H62.9102V19ZM68.3887 19H77.3633V16.8516H72.0703V16.6758L77.2363 10.0645V8.24805H68.4668V10.3965H73.8672V10.5723L68.3887 17.3594V19ZM84.4336 19.2246C87.5781 19.2246 88.9648 17.4082 89.2969 16.0605L89.3164 15.9629H86.6602L86.6309 16.0215C86.4355 16.4316 85.7422 17.0957 84.4922 17.0957C82.9785 17.0957 82.0312 16.0703 82.002 14.3027H89.4043V13.4141C89.4043 10.1621 87.4512 8.01367 84.3164 8.01367C81.1816 8.01367 79.1797 10.2109 79.1797 13.6289V13.6387C79.1797 17.0859 81.1621 19.2246 84.4336 19.2246ZM84.3652 10.1523C85.6055 10.1523 86.4941 10.9531 86.6699 12.5156H82.0312C82.207 10.9922 83.125 10.1523 84.3652 10.1523ZM98.1738 22.7891C100.83 22.7891 102.246 21.832 103.203 18.9902L106.865 8.24805H103.857L101.602 16.3926H101.406L99.1504 8.24805H96.0156L99.7949 19L99.6973 19.4102C99.4922 20.25 98.9062 20.6406 97.8906 20.6406C97.627 20.6406 97.3438 20.6309 97.1484 20.6113V22.7598C97.4805 22.7793 97.8418 22.7891 98.1738 22.7891ZM113.174 19.2246C116.484 19.2246 118.477 17.1348 118.477 13.6289V13.6094C118.477 10.1328 116.455 8.01367 113.174 8.01367C109.893 8.01367 107.871 10.1426 107.871 13.6094V13.6289C107.871 17.125 109.863 19.2246 113.174 19.2246ZM113.174 16.9883C111.65 16.9883 110.791 15.748 110.791 13.6289V13.6094C110.791 11.5098 111.66 10.25 113.174 10.25C114.678 10.25 115.557 11.5098 115.557 13.6094V13.6289C115.557 15.748 114.688 16.9883 113.174 16.9883ZM124.355 19.2246C125.889 19.2246 126.982 18.5117 127.471 17.3398H127.646V19H130.498V8.24805H127.646V14.459C127.646 15.9141 126.885 16.8613 125.479 16.8613C124.131 16.8613 123.555 16.0703 123.555 14.5469V8.24805H120.703V15.2012C120.703 17.7598 121.943 19.2246 124.355 19.2246ZM133.359 19H136.211V12.9844C136.211 11.4609 137.236 10.5332 138.857 10.5332C139.297 10.5332 139.736 10.6016 140.166 10.6992V8.20898C139.883 8.13086 139.482 8.07227 139.102 8.07227C137.705 8.07227 136.729 8.75586 136.387 9.91797H136.211V8.24805H133.359V19ZM151.504 19.2246C154.258 19.2246 156.221 17.8379 156.221 15.709V15.6992C156.221 14.1074 155.215 13.209 153.066 12.75L151.279 12.3691C150.166 12.125 149.766 11.793 149.766 11.2168V11.207C149.766 10.4844 150.469 10.0254 151.455 10.0254C152.52 10.0254 153.154 10.5625 153.311 11.1387L153.32 11.1875H155.967V11.1484C155.85 9.41992 154.287 8.01367 151.465 8.01367C148.779 8.01367 146.982 9.36133 146.982 11.3828V11.3926C146.982 13.0039 147.998 14.0098 150.049 14.4492L151.846 14.8301C152.939 15.0742 153.369 15.4355 153.369 16.0117V16.0312C153.369 16.7441 152.627 17.2129 151.533 17.2129C150.41 17.2129 149.756 16.7344 149.531 16.0703L149.512 16.0312H146.709L146.719 16.0703C146.924 17.916 148.584 19.2246 151.504 19.2246ZM158.555 22.5645H161.406V17.2812H161.582C162.129 18.4531 163.33 19.166 164.805 19.166C167.529 19.166 169.17 17.0859 169.17 13.6289V13.6094C169.17 10.1816 167.49 8.07227 164.805 8.07227C163.281 8.07227 162.139 8.75586 161.582 9.9082H161.406V8.24805H158.555V22.5645ZM163.828 16.8027C162.334 16.8027 161.377 15.6016 161.377 13.6289V13.6094C161.377 11.6367 162.324 10.4355 163.828 10.4355C165.342 10.4355 166.27 11.6367 166.27 13.6094V13.6289C166.27 15.6016 165.332 16.8027 163.828 16.8027ZM174.434 19.166C175.84 19.166 176.973 18.5703 177.52 17.5742H177.695V19H180.508V11.6562C180.508 9.36133 178.896 8.01367 176.045 8.01367C173.34 8.01367 171.562 9.26367 171.338 11.1484L171.328 11.2363H173.965L173.984 11.1973C174.209 10.5625 174.863 10.2012 175.889 10.2012C177.061 10.2012 177.695 10.7285 177.695 11.6562V12.5449L175.098 12.7012C172.422 12.8574 170.928 13.9902 170.928 15.9238V15.9434C170.928 17.8965 172.383 19.166 174.434 19.166ZM173.711 15.7676V15.748C173.711 14.9668 174.307 14.5078 175.527 14.4297L177.695 14.293V15.084C177.695 16.2168 176.709 17.0859 175.391 17.0859C174.404 17.0859 173.711 16.5879 173.711 15.7676ZM188.037 19.2246C190.84 19.2246 192.52 17.7207 192.812 15.377L192.822 15.3184H190.186L190.166 15.3574C189.912 16.4316 189.219 16.9883 188.047 16.9883C186.523 16.9883 185.674 15.7871 185.674 13.6094V13.5898C185.674 11.4414 186.514 10.25 188.047 10.25C189.268 10.25 189.98 10.9336 190.166 11.9785L190.176 11.998H192.832V11.9688C192.578 9.56641 190.889 8.01367 188.037 8.01367C184.668 8.01367 182.773 10.0547 182.773 13.5898V13.6094C182.773 17.1836 184.678 19.2246 188.037 19.2246ZM199.785 19.2246C202.93 19.2246 204.316 17.4082 204.648 16.0605L204.668 15.9629H202.012L201.982 16.0215C201.787 16.4316 201.094 17.0957 199.844 17.0957C198.33 17.0957 197.383 16.0703 197.354 14.3027H204.756V13.4141C204.756 10.1621 202.803 8.01367 199.668 8.01367C196.533 8.01367 194.531 10.2109 194.531 13.6289V13.6387C194.531 17.0859 196.514 19.2246 199.785 19.2246ZM199.717 10.1523C200.957 10.1523 201.846 10.9531 202.021 12.5156H197.383C197.559 10.9922 198.477 10.1523 199.717 10.1523ZM211.367 19.2246C214.121 19.2246 216.084 17.8379 216.084 15.709V15.6992C216.084 14.1074 215.078 13.209 212.93 12.75L211.143 12.3691C210.029 12.125 209.629 11.793 209.629 11.2168V11.207C209.629 10.4844 210.332 10.0254 211.318 10.0254C212.383 10.0254 213.018 10.5625 213.174 11.1387L213.184 11.1875H215.83V11.1484C215.713 9.41992 214.15 8.01367 211.328 8.01367C208.643 8.01367 206.846 9.36133 206.846 11.3828V11.3926C206.846 13.0039 207.861 14.0098 209.912 14.4492L211.709 14.8301C212.803 15.0742 213.232 15.4355 213.232 16.0117V16.0312C213.232 16.7441 212.49 17.2129 211.396 17.2129C210.273 17.2129 209.619 16.7344 209.395 16.0703L209.375 16.0312H206.572L206.582 16.0703C206.787 17.916 208.447 19.2246 211.367 19.2246Z" fill="#353340" fill-opacity="0.6"/>
<path d="M963.895 148.361C967.293 148.361 969.705 146.35 970.008 143.4L970.018 143.293H967.146L967.127 143.371C966.814 144.875 965.594 145.861 963.904 145.861C961.678 145.861 960.301 143.986 960.301 140.959V140.939C960.301 137.912 961.678 136.047 963.895 136.047C965.574 136.047 966.834 137.121 967.137 138.703V138.771H970.008V138.654C969.734 135.676 967.234 133.547 963.895 133.547C959.803 133.547 957.283 136.369 957.283 140.939V140.959C957.283 145.529 959.812 148.361 963.895 148.361ZM972.449 148H975.301V141.984C975.301 140.461 976.326 139.533 977.947 139.533C978.387 139.533 978.826 139.602 979.256 139.699V137.209C978.973 137.131 978.572 137.072 978.191 137.072C976.795 137.072 975.818 137.756 975.477 138.918H975.301V137.248H972.449V148ZM985.633 148.225C988.777 148.225 990.164 146.408 990.496 145.061L990.516 144.963H987.859L987.83 145.021C987.635 145.432 986.941 146.096 985.691 146.096C984.178 146.096 983.23 145.07 983.201 143.303H990.604V142.414C990.604 139.162 988.65 137.014 985.516 137.014C982.381 137.014 980.379 139.211 980.379 142.629V142.639C980.379 146.086 982.361 148.225 985.633 148.225ZM985.564 139.152C986.805 139.152 987.693 139.953 987.869 141.516H983.23C983.406 139.992 984.324 139.152 985.564 139.152ZM995.867 148.166C997.273 148.166 998.406 147.57 998.953 146.574H999.129V148H1001.94V140.656C1001.94 138.361 1000.33 137.014 997.479 137.014C994.773 137.014 992.996 138.264 992.771 140.148L992.762 140.236H995.398L995.418 140.197C995.643 139.562 996.297 139.201 997.322 139.201C998.494 139.201 999.129 139.729 999.129 140.656V141.545L996.531 141.701C993.855 141.857 992.361 142.99 992.361 144.924V144.943C992.361 146.896 993.816 148.166 995.867 148.166ZM995.145 144.768V144.748C995.145 143.967 995.74 143.508 996.961 143.43L999.129 143.293V144.084C999.129 145.217 998.143 146.086 996.824 146.086C995.838 146.086 995.145 145.588 995.145 144.768ZM1009.2 148.039C1009.74 148.039 1010.27 147.98 1010.62 147.912V145.793C1010.35 145.822 1010.15 145.842 1009.78 145.842C1008.82 145.842 1008.41 145.412 1008.41 144.445V139.396H1010.62V137.248H1008.41V134.68H1005.53V137.248H1003.87V139.396H1005.53V145.1C1005.53 147.189 1006.58 148.039 1009.2 148.039ZM1017.64 148.225C1020.79 148.225 1022.18 146.408 1022.51 145.061L1022.53 144.963H1019.87L1019.84 145.021C1019.65 145.432 1018.95 146.096 1017.7 146.096C1016.19 146.096 1015.24 145.07 1015.21 143.303H1022.62V142.414C1022.62 139.162 1020.66 137.014 1017.53 137.014C1014.39 137.014 1012.39 139.211 1012.39 142.629V142.639C1012.39 146.086 1014.37 148.225 1017.64 148.225ZM1017.58 139.152C1018.82 139.152 1019.71 139.953 1019.88 141.516H1015.24C1015.42 139.992 1016.34 139.152 1017.58 139.152ZM1031.38 151.789C1034.04 151.789 1035.46 150.832 1036.41 147.99L1040.08 137.248H1037.07L1034.81 145.393H1034.62L1032.36 137.248H1029.23L1033.01 148L1032.91 148.41C1032.7 149.25 1032.12 149.641 1031.1 149.641C1030.84 149.641 1030.55 149.631 1030.36 149.611V151.76C1030.69 151.779 1031.05 151.789 1031.38 151.789ZM1046.38 148.225C1049.7 148.225 1051.69 146.135 1051.69 142.629V142.609C1051.69 139.133 1049.67 137.014 1046.38 137.014C1043.1 137.014 1041.08 139.143 1041.08 142.609V142.629C1041.08 146.125 1043.07 148.225 1046.38 148.225ZM1046.38 145.988C1044.86 145.988 1044 144.748 1044 142.629V142.609C1044 140.51 1044.87 139.25 1046.38 139.25C1047.89 139.25 1048.77 140.51 1048.77 142.609V142.629C1048.77 144.748 1047.9 145.988 1046.38 145.988ZM1057.57 148.225C1059.1 148.225 1060.19 147.512 1060.68 146.34H1060.86V148H1063.71V137.248H1060.86V143.459C1060.86 144.914 1060.1 145.861 1058.69 145.861C1057.34 145.861 1056.77 145.07 1056.77 143.547V137.248H1053.91V144.201C1053.91 146.76 1055.15 148.225 1057.57 148.225ZM1066.57 148H1069.42V141.984C1069.42 140.461 1070.45 139.533 1072.07 139.533C1072.51 139.533 1072.95 139.602 1073.38 139.699V137.209C1073.09 137.131 1072.69 137.072 1072.31 137.072C1070.92 137.072 1069.94 137.756 1069.6 138.918H1069.42V137.248H1066.57V148ZM1085.21 148.225C1088.52 148.225 1090.52 146.135 1090.52 142.629V142.609C1090.52 139.133 1088.49 137.014 1085.21 137.014C1081.93 137.014 1079.91 139.143 1079.91 142.609V142.629C1079.91 146.125 1081.9 148.225 1085.21 148.225ZM1085.21 145.988C1083.69 145.988 1082.83 144.748 1082.83 142.629V142.609C1082.83 140.51 1083.7 139.25 1085.21 139.25C1086.72 139.25 1087.6 140.51 1087.6 142.609V142.629C1087.6 144.748 1086.73 145.988 1085.21 145.988ZM1094.43 148H1097.42L1099.32 140.5H1099.5L1101.42 148H1104.45L1107.31 137.248H1104.49L1102.89 145.031H1102.71L1100.82 137.248H1098.1L1096.22 145.031H1096.04L1094.44 137.248H1091.56L1094.43 148ZM1109.34 148H1112.2V141.779C1112.2 140.324 1113 139.377 1114.31 139.377C1115.66 139.377 1116.29 140.178 1116.29 141.691V148H1119.14V141.047C1119.14 138.479 1117.85 137.014 1115.46 137.014C1113.92 137.014 1112.86 137.746 1112.37 138.908H1112.2V137.248H1109.34V148ZM1127.06 148H1129.91V141.779C1129.91 140.324 1130.71 139.377 1132.03 139.377C1133.38 139.377 1134 140.178 1134 141.691V148H1136.85V141.047C1136.85 138.479 1135.56 137.014 1133.17 137.014C1131.64 137.014 1130.57 137.746 1130.09 138.908H1129.91V137.248H1127.06V148ZM1144.34 148.225C1147.49 148.225 1148.88 146.408 1149.21 145.061L1149.23 144.963H1146.57L1146.54 145.021C1146.35 145.432 1145.65 146.096 1144.4 146.096C1142.89 146.096 1141.94 145.07 1141.91 143.303H1149.31V142.414C1149.31 139.162 1147.36 137.014 1144.23 137.014C1141.09 137.014 1139.09 139.211 1139.09 142.629V142.639C1139.09 146.086 1141.07 148.225 1144.34 148.225ZM1144.28 139.152C1145.52 139.152 1146.4 139.953 1146.58 141.516H1141.94C1142.12 139.992 1143.04 139.152 1144.28 139.152ZM1153.49 148H1156.48L1158.39 140.5H1158.56L1160.49 148H1163.51L1166.38 137.248H1163.55L1161.95 145.031H1161.78L1159.88 137.248H1157.17L1155.28 145.031H1155.11L1153.5 137.248H1150.62L1153.49 148ZM1177.84 148.225C1180.59 148.225 1182.56 146.838 1182.56 144.709V144.699C1182.56 143.107 1181.55 142.209 1179.4 141.75L1177.62 141.369C1176.5 141.125 1176.1 140.793 1176.1 140.217V140.207C1176.1 139.484 1176.8 139.025 1177.79 139.025C1178.86 139.025 1179.49 139.562 1179.65 140.139L1179.66 140.188H1182.3V140.148C1182.19 138.42 1180.62 137.014 1177.8 137.014C1175.12 137.014 1173.32 138.361 1173.32 140.383V140.393C1173.32 142.004 1174.33 143.01 1176.38 143.449L1178.18 143.83C1179.28 144.074 1179.71 144.436 1179.71 145.012V145.031C1179.71 145.744 1178.96 146.213 1177.87 146.213C1176.75 146.213 1176.09 145.734 1175.87 145.07L1175.85 145.031H1173.04L1173.05 145.07C1173.26 146.916 1174.92 148.225 1177.84 148.225ZM1184.89 151.564H1187.74V146.281H1187.92C1188.46 147.453 1189.67 148.166 1191.14 148.166C1193.87 148.166 1195.51 146.086 1195.51 142.629V142.609C1195.51 139.182 1193.83 137.072 1191.14 137.072C1189.62 137.072 1188.47 137.756 1187.92 138.908H1187.74V137.248H1184.89V151.564ZM1190.16 145.803C1188.67 145.803 1187.71 144.602 1187.71 142.629V142.609C1187.71 140.637 1188.66 139.436 1190.16 139.436C1191.68 139.436 1192.61 140.637 1192.61 142.609V142.629C1192.61 144.602 1191.67 145.803 1190.16 145.803ZM1200.77 148.166C1202.18 148.166 1203.31 147.57 1203.86 146.574H1204.03V148H1206.84V140.656C1206.84 138.361 1205.23 137.014 1202.38 137.014C1199.68 137.014 1197.9 138.264 1197.67 140.148L1197.66 140.236H1200.3L1200.32 140.197C1200.54 139.562 1201.2 139.201 1202.22 139.201C1203.4 139.201 1204.03 139.729 1204.03 140.656V141.545L1201.43 141.701C1198.76 141.857 1197.26 142.99 1197.26 144.924V144.943C1197.26 146.896 1198.72 148.166 1200.77 148.166ZM1200.05 144.768V144.748C1200.05 143.967 1200.64 143.508 1201.86 143.43L1204.03 143.293V144.084C1204.03 145.217 1203.04 146.086 1201.73 146.086C1200.74 146.086 1200.05 145.588 1200.05 144.768ZM1214.37 148.225C1217.18 148.225 1218.86 146.721 1219.15 144.377L1219.16 144.318H1216.52L1216.5 144.357C1216.25 145.432 1215.55 145.988 1214.38 145.988C1212.86 145.988 1212.01 144.787 1212.01 142.609V142.59C1212.01 140.441 1212.85 139.25 1214.38 139.25C1215.6 139.25 1216.32 139.934 1216.5 140.979L1216.51 140.998H1219.17V140.969C1218.91 138.566 1217.22 137.014 1214.37 137.014C1211 137.014 1209.11 139.055 1209.11 142.59V142.609C1209.11 146.184 1211.01 148.225 1214.37 148.225ZM1226.12 148.225C1229.27 148.225 1230.65 146.408 1230.98 145.061L1231 144.963H1228.35L1228.32 145.021C1228.12 145.432 1227.43 146.096 1226.18 146.096C1224.67 146.096 1223.72 145.07 1223.69 143.303H1231.09V142.414C1231.09 139.162 1229.14 137.014 1226 137.014C1222.87 137.014 1220.87 139.211 1220.87 142.629V142.639C1220.87 146.086 1222.85 148.225 1226.12 148.225ZM1226.05 139.152C1227.29 139.152 1228.18 139.953 1228.36 141.516H1223.72C1223.89 139.992 1224.81 139.152 1226.05 139.152Z" fill="#353340" fill-opacity="0.6"/>
</svg>
