<svg width="762" height="325" viewBox="0 0 762 325" fill="none" xmlns="http://www.w3.org/2000/svg">
<rect width="350" height="70" fill="#A1BFDB"/>
<path d="M15.0547 63H19.6982L21.2656 57.873H28.7217L30.2891 63H34.9473L27.5938 41.8623H22.3936L15.0547 63ZM24.8691 46.0811H25.1328L27.7109 54.5625H22.2764L24.8691 46.0811ZM41.9639 63H46.3877V41.8623H41.9785L36.5146 45.6562V49.6406L41.7002 46.0371H41.9639V63ZM52.5693 63H62.0615C66.5732 63 69.3711 60.6709 69.3711 56.9648V56.9355C69.3711 54.2256 67.335 52.1309 64.5371 51.9111V51.6475C66.7051 51.3252 68.3604 49.377 68.3604 47.1504V47.1211C68.3604 43.8691 65.9141 41.8623 61.8125 41.8623H52.5693V63ZM60.6846 45.1436C62.7939 45.1436 64.0098 46.1689 64.0098 47.8828V47.9121C64.0098 49.6553 62.7061 50.6514 60.3184 50.6514H56.9932V45.1436H60.6846ZM60.8311 53.5664C63.4385 53.5664 64.8594 54.6211 64.8594 56.584V56.6133C64.8594 58.6201 63.4824 59.7041 60.9336 59.7041H56.9932V53.5664H60.8311ZM73.3701 63H77.7939V54.6797H86.3926V51.1787H77.7939V45.5098H87.2129V41.8623H73.3701V63ZM91.2998 63H99.6201C105.948 63 109.537 59.1328 109.537 52.3066V52.2773C109.537 45.6562 105.904 41.8623 99.6201 41.8623H91.2998V63ZM95.7236 59.3525V45.5098H98.917C102.755 45.5098 105.025 48 105.025 52.3506V52.3799C105.025 56.8916 102.828 59.3525 98.917 59.3525H95.7236ZM113.741 63H123.233C127.745 63 130.543 60.6709 130.543 56.9648V56.9355C130.543 54.2256 128.507 52.1309 125.709 51.9111V51.6475C127.877 51.3252 129.532 49.377 129.532 47.1504V47.1211C129.532 43.8691 127.086 41.8623 122.984 41.8623H113.741V63ZM121.856 45.1436C123.966 45.1436 125.182 46.1689 125.182 47.8828V47.9121C125.182 49.6553 123.878 50.6514 121.49 50.6514H118.165V45.1436H121.856ZM122.003 53.5664C124.61 53.5664 126.031 54.6211 126.031 56.584V56.6133C126.031 58.6201 124.654 59.7041 122.105 59.7041H118.165V53.5664H122.003Z" fill="white"/>
<rect y="85" width="350" height="70" fill="#CBC3D2"/>
<path d="M25.543 147.542C30.6406 147.542 34.2588 144.524 34.7129 140.101L34.7275 139.939H30.4209L30.3916 140.057C29.9229 142.312 28.0918 143.792 25.5576 143.792C22.2178 143.792 20.1523 140.979 20.1523 136.438V136.409C20.1523 131.868 22.2178 129.07 25.543 129.07C28.0625 129.07 29.9521 130.682 30.4062 133.055V133.157H34.7129V132.981C34.3027 128.514 30.5527 125.32 25.543 125.32C19.4053 125.32 15.626 129.554 15.626 136.409V136.438C15.626 143.294 19.4199 147.542 25.543 147.542ZM38.7998 147H48.292C52.8037 147 55.6016 144.671 55.6016 140.965V140.936C55.6016 138.226 53.5654 136.131 50.7676 135.911V135.647C52.9355 135.325 54.5908 133.377 54.5908 131.15V131.121C54.5908 127.869 52.1445 125.862 48.043 125.862H38.7998V147ZM46.915 129.144C49.0244 129.144 50.2402 130.169 50.2402 131.883V131.912C50.2402 133.655 48.9365 134.651 46.5488 134.651H43.2236V129.144H46.915ZM47.0615 137.566C49.6689 137.566 51.0898 138.621 51.0898 140.584V140.613C51.0898 142.62 49.7129 143.704 47.1641 143.704H43.2236V137.566H47.0615ZM68.5801 147.542C73.6777 147.542 77.2959 144.524 77.75 140.101L77.7646 139.939H73.458L73.4287 140.057C72.96 142.312 71.1289 143.792 68.5947 143.792C65.2549 143.792 63.1895 140.979 63.1895 136.438V136.409C63.1895 131.868 65.2549 129.07 68.5801 129.07C71.0996 129.07 72.9893 130.682 73.4434 133.055V133.157H77.75V132.981C77.3398 128.514 73.5898 125.32 68.5801 125.32C62.4424 125.32 58.6631 129.554 58.6631 136.409V136.438C58.6631 143.294 62.457 147.542 68.5801 147.542ZM89.3076 147.469C94.2441 147.469 97.54 144.876 97.54 141.038V141.009C97.54 138.138 95.4893 136.321 92.3398 136.028V135.94C94.8154 135.428 96.749 133.714 96.749 131.077V131.048C96.749 127.679 93.8193 125.394 89.2783 125.394C84.8398 125.394 81.8662 127.854 81.5586 131.634L81.5439 131.81H85.6162L85.6309 131.678C85.8066 129.92 87.1982 128.792 89.2783 128.792C91.3584 128.792 92.5742 129.876 92.5742 131.634V131.663C92.5742 133.377 91.1387 134.549 88.9121 134.549H86.5537V137.698H88.9707C91.5342 137.698 93.043 138.812 93.043 140.833V140.862C93.043 142.649 91.5635 143.909 89.3076 143.909C87.0225 143.909 85.5137 142.737 85.3232 141.097L85.3086 140.936H81.0752L81.0898 141.126C81.3828 144.905 84.5322 147.469 89.3076 147.469ZM101.905 147H110.226C116.554 147 120.143 143.133 120.143 136.307V136.277C120.143 129.656 116.51 125.862 110.226 125.862H101.905V147ZM106.329 143.353V129.51H109.522C113.36 129.51 115.631 132 115.631 136.351V136.38C115.631 140.892 113.434 143.353 109.522 143.353H106.329ZM123.922 147H139.171V143.44H129.854V143.104L133.766 139.456C137.618 135.896 138.863 133.904 138.863 131.502V131.458C138.863 127.811 135.816 125.32 131.466 125.32C126.837 125.32 123.673 128.104 123.673 132.161L123.688 132.22H127.774V132.146C127.774 130.14 129.195 128.763 131.261 128.763C133.282 128.763 134.513 130.022 134.513 131.824V131.868C134.513 133.348 133.707 134.417 130.733 137.303L123.922 144.026V147Z" fill="white"/>
<rect y="170" width="350" height="70" fill="#526AAE"/>
<path d="M24.1514 232.542C28.8975 232.542 32.1787 229.51 32.1787 225.057V225.027C32.1787 220.999 29.3369 218.099 25.3965 218.099C23.375 218.099 21.7344 218.978 20.8848 220.398H20.6211L21.1484 214.378H30.9189V210.862H17.7061L16.7246 223.372H20.5186C20.7529 222.918 21.1045 222.522 21.5 222.2C22.2031 221.6 23.1113 221.292 24.1807 221.292C26.4219 221.292 28.0186 222.859 28.0186 225.115V225.145C28.0186 227.415 26.4365 229.012 24.166 229.012C22.1738 229.012 20.7236 227.767 20.416 226.214L20.3867 226.111H16.373L16.3877 226.316C16.6367 229.847 19.625 232.542 24.1514 232.542ZM36.0605 232H51.3096V228.44H41.9932V228.104L45.9043 224.456C49.7568 220.896 51.002 218.904 51.002 216.502V216.458C51.002 212.811 47.9551 210.32 43.6045 210.32C38.9756 210.32 35.8115 213.104 35.8115 217.161L35.8262 217.22H39.9131V217.146C39.9131 215.14 41.334 213.763 43.3994 213.763C45.4209 213.763 46.6514 215.022 46.6514 216.824V216.868C46.6514 218.348 45.8457 219.417 42.8721 222.303L36.0605 229.026V232ZM63.79 232.542C68.5508 232.542 71.8906 229.363 71.8906 225.042V225.013C71.8906 221.014 69.1074 218.084 64.9912 218.084C62.0762 218.084 60.3037 219.534 59.542 221.175H59.249C59.249 221.014 59.249 220.853 59.2637 220.691C59.4248 216.854 60.7578 213.851 63.8193 213.851C65.5332 213.851 66.7344 214.744 67.2324 216.062L67.291 216.194H71.6123L71.583 216.048C70.9385 212.737 67.8916 210.32 63.8047 210.32C58.3994 210.32 55.0596 214.524 55.0596 221.6V221.629C55.0596 229.07 58.8828 232.542 63.79 232.542ZM59.9082 225.101V225.086C59.9082 222.903 61.6074 221.336 63.79 221.336C66.002 221.336 67.6133 222.947 67.6133 225.159V225.188C67.6133 227.356 65.8994 229.041 63.7607 229.041C61.6074 229.041 59.9082 227.327 59.9082 225.101ZM74.1172 232H78.7607L80.3281 226.873H87.7842L89.3516 232H94.0098L86.6562 210.862H81.4561L74.1172 232ZM83.9316 215.081H84.1953L86.7734 223.562H81.3389L83.9316 215.081ZM96.0898 232H100.733L102.301 226.873H109.757L111.324 232H115.982L108.629 210.862H103.429L96.0898 232ZM105.904 215.081H106.168L108.746 223.562H103.312L105.904 215.081ZM119.571 232H133.575V228.353H123.995V223.006H133.033V219.607H123.995V214.51H133.575V210.862H119.571V232Z" fill="white"/>
<rect x="412" width="350" height="70" fill="#E4E4DB"/>
<path d="M428.563 63H442.567V59.3525H432.987V54.0059H442.025V50.6074H432.987V45.5098H442.567V41.8623H428.563V63ZM456.454 63H460.673V59.1182H463.427V55.5732H460.673V41.8623H454.462C451.649 46.1982 448.778 50.8857 446.098 55.6465V59.1182H456.454V63ZM450.082 55.6904V55.4561C451.986 52.043 454.257 48.3662 456.308 45.2168H456.542V55.6904H450.082ZM467.704 63H481.708V59.3525H472.128V54.0059H481.166V50.6074H472.128V45.5098H481.708V41.8623H467.704V63ZM495.595 63H499.813V59.1182H502.567V55.5732H499.813V41.8623H493.603C490.79 46.1982 487.919 50.8857 485.238 55.6465V59.1182H495.595V63ZM489.223 55.6904V55.4561C491.127 52.043 493.397 48.3662 495.448 45.2168H495.683V55.6904H489.223ZM506.845 63H515.165C521.493 63 525.082 59.1328 525.082 52.3066V52.2773C525.082 45.6562 521.449 41.8623 515.165 41.8623H506.845V63ZM511.269 59.3525V45.5098H514.462C518.3 45.5098 520.57 48 520.57 52.3506V52.3799C520.57 56.8916 518.373 59.3525 514.462 59.3525H511.269ZM529.286 63H538.778C543.29 63 546.088 60.6709 546.088 56.9648V56.9355C546.088 54.2256 544.052 52.1309 541.254 51.9111V51.6475C543.422 51.3252 545.077 49.377 545.077 47.1504V47.1211C545.077 43.8691 542.631 41.8623 538.529 41.8623H529.286V63ZM537.401 45.1436C539.511 45.1436 540.727 46.1689 540.727 47.8828V47.9121C540.727 49.6553 539.423 50.6514 537.035 50.6514H533.71V45.1436H537.401ZM537.548 53.5664C540.155 53.5664 541.576 54.6211 541.576 56.584V56.6133C541.576 58.6201 540.199 59.7041 537.65 59.7041H533.71V53.5664H537.548Z" fill="white"/>
<rect x="412" y="85" width="350" height="70" fill="#DFE3DC"/>
<path d="M426.563 147H434.884C441.212 147 444.801 143.133 444.801 136.307V136.277C444.801 129.656 441.168 125.862 434.884 125.862H426.563V147ZM430.987 143.353V129.51H434.181C438.019 129.51 440.289 132 440.289 136.351V136.38C440.289 140.892 438.092 143.353 434.181 143.353H430.987ZM449.005 147H453.429V138.68H462.027V135.179H453.429V129.51H462.848V125.862H449.005V147ZM466.935 147H480.938V143.353H471.358V138.006H480.396V134.607H471.358V129.51H480.938V125.862H466.935V147ZM493.067 147.469C498.004 147.469 501.3 144.876 501.3 141.038V141.009C501.3 138.138 499.249 136.321 496.1 136.028V135.94C498.575 135.428 500.509 133.714 500.509 131.077V131.048C500.509 127.679 497.579 125.394 493.038 125.394C488.6 125.394 485.626 127.854 485.318 131.634L485.304 131.81H489.376L489.391 131.678C489.566 129.92 490.958 128.792 493.038 128.792C495.118 128.792 496.334 129.876 496.334 131.634V131.663C496.334 133.377 494.898 134.549 492.672 134.549H490.313V137.698H492.73C495.294 137.698 496.803 138.812 496.803 140.833V140.862C496.803 142.649 495.323 143.909 493.067 143.909C490.782 143.909 489.273 142.737 489.083 141.097L489.068 140.936H484.835L484.85 141.126C485.143 144.905 488.292 147.469 493.067 147.469ZM505.665 147H513.985C520.313 147 523.902 143.133 523.902 136.307V136.277C523.902 129.656 520.27 125.862 513.985 125.862H505.665V147ZM510.089 143.353V129.51H513.282C517.12 129.51 519.391 132 519.391 136.351V136.38C519.391 140.892 517.193 143.353 513.282 143.353H510.089ZM537.086 147.542C542.184 147.542 545.802 144.524 546.256 140.101L546.271 139.939H541.964L541.935 140.057C541.466 142.312 539.635 143.792 537.101 143.792C533.761 143.792 531.695 140.979 531.695 136.438V136.409C531.695 131.868 533.761 129.07 537.086 129.07C539.605 129.07 541.495 130.682 541.949 133.055V133.157H546.256V132.981C545.846 128.514 542.096 125.32 537.086 125.32C530.948 125.32 527.169 129.554 527.169 136.409V136.438C527.169 143.294 530.963 147.542 537.086 147.542Z" fill="white"/>
<rect x="412" y="170" width="350" height="70" fill="#D7CCB7"/>
<path d="M426.563 232H434.884C441.212 232 444.801 228.133 444.801 221.307V221.277C444.801 214.656 441.168 210.862 434.884 210.862H426.563V232ZM430.987 228.353V214.51H434.181C438.019 214.51 440.289 217 440.289 221.351V221.38C440.289 225.892 438.092 228.353 434.181 228.353H430.987ZM449.371 232H454L462.833 214.422V210.848H447.716V214.378H458.38V214.627L449.371 232ZM475.826 232.542C480.924 232.542 484.542 229.524 484.996 225.101L485.011 224.939H480.704L480.675 225.057C480.206 227.312 478.375 228.792 475.841 228.792C472.501 228.792 470.436 225.979 470.436 221.438V221.409C470.436 216.868 472.501 214.07 475.826 214.07C478.346 214.07 480.235 215.682 480.689 218.055V218.157H484.996V217.981C484.586 213.514 480.836 210.32 475.826 210.32C469.688 210.32 465.909 214.554 465.909 221.409V221.438C465.909 228.294 469.703 232.542 475.826 232.542ZM498.062 232.542C503.16 232.542 506.778 229.524 507.232 225.101L507.247 224.939H502.94L502.911 225.057C502.442 227.312 500.611 228.792 498.077 228.792C494.737 228.792 492.672 225.979 492.672 221.438V221.409C492.672 216.868 494.737 214.07 498.062 214.07C500.582 214.07 502.472 215.682 502.926 218.055V218.157H507.232V217.981C506.822 213.514 503.072 210.32 498.062 210.32C491.925 210.32 488.146 214.554 488.146 221.409V221.438C488.146 228.294 491.939 232.542 498.062 232.542ZM511.319 232H520.812C525.323 232 528.121 229.671 528.121 225.965V225.936C528.121 223.226 526.085 221.131 523.287 220.911V220.647C525.455 220.325 527.11 218.377 527.11 216.15V216.121C527.11 212.869 524.664 210.862 520.562 210.862H511.319V232ZM519.435 214.144C521.544 214.144 522.76 215.169 522.76 216.883V216.912C522.76 218.655 521.456 219.651 519.068 219.651H515.743V214.144H519.435ZM519.581 222.566C522.188 222.566 523.609 223.621 523.609 225.584V225.613C523.609 227.62 522.232 228.704 519.684 228.704H515.743V222.566H519.581ZM532.633 232H537.262L546.095 214.422V210.848H530.978V214.378H541.642V214.627L532.633 232Z" fill="white"/>
<rect y="255" width="350" height="70" fill="#353340"/>
<path d="M24.0342 317.469C28.9707 317.469 32.2666 314.876 32.2666 311.038V311.009C32.2666 308.138 30.2158 306.321 27.0664 306.028V305.94C29.542 305.428 31.4756 303.714 31.4756 301.077V301.048C31.4756 297.679 28.5459 295.394 24.0049 295.394C19.5664 295.394 16.5928 297.854 16.2852 301.634L16.2705 301.81H20.3428L20.3574 301.678C20.5332 299.92 21.9248 298.792 24.0049 298.792C26.085 298.792 27.3008 299.876 27.3008 301.634V301.663C27.3008 303.377 25.8652 304.549 23.6387 304.549H21.2803V307.698H23.6973C26.2607 307.698 27.7695 308.812 27.7695 310.833V310.862C27.7695 312.649 26.29 313.909 24.0342 313.909C21.749 313.909 20.2402 312.737 20.0498 311.097L20.0352 310.936H15.8018L15.8164 311.126C16.1094 314.905 19.2588 317.469 24.0342 317.469ZM44.2197 317.542C48.9658 317.542 52.2471 314.51 52.2471 310.057V310.027C52.2471 305.999 49.4053 303.099 45.4648 303.099C43.4434 303.099 41.8027 303.978 40.9531 305.398H40.6895L41.2168 299.378H50.9873V295.862H37.7744L36.793 308.372H40.5869C40.8213 307.918 41.1729 307.522 41.5684 307.2C42.2715 306.6 43.1797 306.292 44.249 306.292C46.4902 306.292 48.0869 307.859 48.0869 310.115V310.145C48.0869 312.415 46.5049 314.012 44.2344 314.012C42.2422 314.012 40.792 312.767 40.4844 311.214L40.4551 311.111H36.4414L36.4561 311.316C36.7051 314.847 39.6934 317.542 44.2197 317.542ZM64.0244 317.469C68.9609 317.469 72.2568 314.876 72.2568 311.038V311.009C72.2568 308.138 70.2061 306.321 67.0566 306.028V305.94C69.5322 305.428 71.4658 303.714 71.4658 301.077V301.048C71.4658 297.679 68.5361 295.394 63.9951 295.394C59.5566 295.394 56.583 297.854 56.2754 301.634L56.2607 301.81H60.333L60.3477 301.678C60.5234 299.92 61.915 298.792 63.9951 298.792C66.0752 298.792 67.291 299.876 67.291 301.634V301.663C67.291 303.377 65.8555 304.549 63.6289 304.549H61.2705V307.698H63.6875C66.251 307.698 67.7598 308.812 67.7598 310.833V310.862C67.7598 312.649 66.2803 313.909 64.0244 313.909C61.7393 313.909 60.2305 312.737 60.04 311.097L60.0254 310.936H55.792L55.8066 311.126C56.0996 314.905 59.249 317.469 64.0244 317.469ZM84.0928 317.469C89.0293 317.469 92.3252 314.876 92.3252 311.038V311.009C92.3252 308.138 90.2744 306.321 87.125 306.028V305.94C89.6006 305.428 91.5342 303.714 91.5342 301.077V301.048C91.5342 297.679 88.6045 295.394 84.0635 295.394C79.625 295.394 76.6514 297.854 76.3438 301.634L76.3291 301.81H80.4014L80.416 301.678C80.5918 299.92 81.9834 298.792 84.0635 298.792C86.1436 298.792 87.3594 299.876 87.3594 301.634V301.663C87.3594 303.377 85.9238 304.549 83.6973 304.549H81.3389V307.698H83.7559C86.3193 307.698 87.8281 308.812 87.8281 310.833V310.862C87.8281 312.649 86.3486 313.909 84.0928 313.909C81.8076 313.909 80.2988 312.737 80.1084 311.097L80.0938 310.936H75.8604L75.875 311.126C76.168 314.905 79.3174 317.469 84.0928 317.469ZM106.065 317H110.284V313.118H113.038V309.573H110.284V295.862H104.073C101.261 300.198 98.3896 304.886 95.709 309.646V313.118H106.065V317ZM99.6934 309.69V309.456C101.598 306.043 103.868 302.366 105.919 299.217H106.153V309.69H99.6934ZM125.021 317.542C130.25 317.542 133.414 313.265 133.414 306.438V306.409C133.414 299.568 130.25 295.32 125.021 295.32C119.806 295.32 116.627 299.568 116.627 306.409V306.438C116.627 313.265 119.806 317.542 125.021 317.542ZM125.021 314.041C122.53 314.041 121.109 311.214 121.109 306.438V306.409C121.109 301.619 122.53 298.821 125.021 298.821C127.525 298.821 128.946 301.619 128.946 306.409V306.438C128.946 311.214 127.525 314.041 125.021 314.041Z" fill="white"/>
</svg>
