<svg width="328" height="85" viewBox="0 0 328 85" fill="none" xmlns="http://www.w3.org/2000/svg">
<path d="M1 1L326.6 1.00003" stroke="#C5C5C5" stroke-opacity="0.5" stroke-width="1.6" stroke-linecap="round"/>
<path d="M1 83.8003L326.6 83.8003" stroke="#C5C5C5" stroke-opacity="0.5" stroke-width="1.6" stroke-linecap="round"/>
<path d="M45.4316 50H48.5957L50.002 45.6289H56.2598L57.6777 50H60.8418L54.8418 33.0898H51.4316L45.4316 50ZM53.0371 36.2305H53.2363L55.5098 43.2969H50.7637L53.0371 36.2305ZM63.4434 50H66.3613V42.5586C66.3613 40.7305 67.6387 39.5703 69.584 39.5703C70.0879 39.5703 70.5684 39.6406 71.0371 39.7344V37.1211C70.7559 37.0391 70.2988 36.9805 69.8535 36.9805C68.166 36.9805 66.9941 37.7891 66.5605 39.1602H66.3613V37.1914H63.4434V50ZM78.5957 50.2578C81.8418 50.2578 83.7285 48.5117 84.1504 45.8867L84.1738 45.793L81.4199 45.8047L81.3965 45.8516C81.0332 47.1992 80.1074 47.8906 78.5957 47.8906C76.6152 47.8906 75.4316 46.2969 75.4316 43.5781V43.5547C75.4316 40.8711 76.6035 39.3008 78.5957 39.3008C80.1895 39.3008 81.1387 40.1914 81.4082 41.4336L81.4199 41.4688H84.1738V41.4219C83.8457 38.7734 81.877 36.9453 78.584 36.9453C74.7285 36.9453 72.4668 39.418 72.4668 43.5547V43.5781C72.4668 47.7617 74.7402 50.2578 78.5957 50.2578ZM87.0684 50H89.9863V42.5352C89.9863 40.6133 91.0645 39.3945 92.7988 39.3945C94.5684 39.3945 95.377 40.4023 95.377 42.3945V50H98.2949V41.7148C98.2949 38.668 96.7363 36.9453 93.877 36.9453C92.0254 36.9453 90.7949 37.7773 90.1855 39.1484H89.9863V32.2344H87.0684V50ZM103.24 35.0469C104.189 35.0469 104.975 34.2852 104.975 33.3242C104.975 32.375 104.189 31.6016 103.24 31.6016C102.279 31.6016 101.494 32.375 101.494 33.3242C101.494 34.2852 102.279 35.0469 103.24 35.0469ZM101.775 50H104.693V37.1914H101.775V50ZM113.318 50.0586C113.881 50.0586 114.42 50.0117 114.842 49.9297V47.6797C114.49 47.7148 114.268 47.7266 113.857 47.7266C112.639 47.7266 112.135 47.1875 112.135 45.9102V39.4531H114.842V37.1914H112.135V34.0508H109.17V37.1914H107.178V39.4531H109.17V46.6016C109.17 49.0742 110.377 50.0586 113.318 50.0586ZM123.115 50.2578C126.596 50.2578 128.307 48.2539 128.717 46.6016L128.752 46.4961H125.975L125.939 46.5781C125.658 47.1641 124.756 47.9609 123.174 47.9609C121.193 47.9609 119.951 46.625 119.916 44.3281H128.869V43.3672C128.869 39.5 126.619 36.9453 122.975 36.9453C119.33 36.9453 116.998 39.582 116.998 43.6133V43.625C116.998 47.7031 119.307 50.2578 123.115 50.2578ZM123.01 39.2305C124.639 39.2305 125.822 40.2734 126.021 42.3711H119.939C120.162 40.332 121.381 39.2305 123.01 39.2305ZM137.283 50.2578C140.529 50.2578 142.416 48.5117 142.838 45.8867L142.861 45.793L140.107 45.8047L140.084 45.8516C139.721 47.1992 138.795 47.8906 137.283 47.8906C135.303 47.8906 134.119 46.2969 134.119 43.5781V43.5547C134.119 40.8711 135.291 39.3008 137.283 39.3008C138.877 39.3008 139.826 40.1914 140.096 41.4336L140.107 41.4688H142.861V41.4219C142.533 38.7734 140.564 36.9453 137.271 36.9453C133.416 36.9453 131.154 39.418 131.154 43.5547V43.5781C131.154 47.7617 133.428 50.2578 137.283 50.2578ZM150.842 50.0586C151.404 50.0586 151.943 50.0117 152.365 49.9297V47.6797C152.014 47.7148 151.791 47.7266 151.381 47.7266C150.162 47.7266 149.658 47.1875 149.658 45.9102V39.4531H152.365V37.1914H149.658V34.0508H146.693V37.1914H144.701V39.4531H146.693V46.6016C146.693 49.0742 147.9 50.0586 150.842 50.0586ZM159.514 50.2578C161.365 50.2578 162.666 49.4258 163.264 48.0547H163.463V50H166.381V37.1914H163.463V44.6562C163.463 46.5781 162.455 47.7969 160.568 47.7969C158.811 47.7969 158.072 46.7891 158.072 44.8086V37.1914H155.154V45.4766C155.154 48.5234 156.631 50.2578 159.514 50.2578ZM169.943 50H172.861V42.5586C172.861 40.7305 174.139 39.5703 176.084 39.5703C176.588 39.5703 177.068 39.6406 177.537 39.7344V37.1211C177.256 37.0391 176.799 36.9805 176.354 36.9805C174.666 36.9805 173.494 37.7891 173.061 39.1602H172.861V37.1914H169.943V50ZM185.084 50.2578C188.564 50.2578 190.275 48.2539 190.686 46.6016L190.721 46.4961H187.943L187.908 46.5781C187.627 47.1641 186.725 47.9609 185.143 47.9609C183.162 47.9609 181.92 46.625 181.885 44.3281H190.838V43.3672C190.838 39.5 188.588 36.9453 184.943 36.9453C181.299 36.9453 178.967 39.582 178.967 43.6133V43.625C178.967 47.7031 181.275 50.2578 185.084 50.2578ZM184.979 39.2305C186.607 39.2305 187.791 40.2734 187.99 42.3711H181.908C182.131 40.332 183.35 39.2305 184.979 39.2305Z" fill="#353340"/>
<path d="M202.652 49.0664L208.703 44.2581C209.564 43.5744 209.564 42.4251 208.703 41.7415L202.652 36.9331" stroke="#353340" stroke-width="1.6" stroke-linecap="round"/>
</svg>
