<svg width="328" height="85" viewBox="0 0 328 85" fill="none" xmlns="http://www.w3.org/2000/svg">
<path d="M1 0.800293L326.6 0.800318" stroke="#C5C5C5" stroke-opacity="0.5" stroke-width="1.6" stroke-linecap="round"/>
<path d="M1 83.6001L326.6 83.6001" stroke="#C5C5C5" stroke-opacity="0.5" stroke-width="1.6" stroke-linecap="round"/>
<path d="M52.1562 51.022C56.2109 51.022 58.7539 48.9595 58.7539 45.6665V45.6548C58.7539 43.1001 57.2656 41.6704 53.7031 40.9204L51.8867 40.5337C49.7773 40.0884 48.9219 39.3384 48.9219 38.1431V38.1313C48.9219 36.6899 50.2578 35.811 52.1328 35.811C54.0664 35.7993 55.3203 36.7368 55.5312 38.0493L55.5547 38.1899H58.4492L58.4375 38.0376C58.2266 35.3188 55.8945 33.2681 52.1445 33.2681C48.4883 33.2681 45.8867 35.3071 45.8867 38.3306V38.3423C45.8867 40.8618 47.3867 42.479 50.8438 43.2056L52.6602 43.5806C54.8398 44.0493 55.7188 44.7876 55.7188 46.0063V46.0181C55.7188 47.4712 54.2891 48.479 52.25 48.479C50.1055 48.479 48.5938 47.5415 48.4531 46.1235L48.4414 46.0063H45.5117L45.5234 46.1704C45.7344 49.0884 48.2305 51.022 52.1562 51.022ZM66.8867 50.6587C67.4492 50.6587 67.9883 50.6118 68.4102 50.5298V48.2798C68.0586 48.3149 67.8359 48.3267 67.4258 48.3267C66.207 48.3267 65.7031 47.7876 65.7031 46.5103V40.0532H68.4102V37.7915H65.7031V34.6509H62.7383V37.7915H60.7461V40.0532H62.7383V47.2017C62.7383 49.6743 63.9453 50.6587 66.8867 50.6587ZM72.6875 55.1001C75.5234 55.1001 76.9883 54.0806 78.0898 50.8696L82.6836 37.7915H79.6133L76.6367 47.7993H76.4141L73.4258 37.7915H70.2383L74.8203 50.6118L74.668 51.1978C74.3516 52.3579 73.6367 52.8501 72.4414 52.8501C72.1367 52.8501 71.8086 52.8384 71.5742 52.8149V55.0532C71.9258 55.0884 72.3359 55.1001 72.6875 55.1001ZM85.3086 50.6001H88.2266V32.8345H85.3086V50.6001ZM97.4023 50.8579C100.883 50.8579 102.594 48.854 103.004 47.2017L103.039 47.0962H100.262L100.227 47.1782C99.9453 47.7642 99.043 48.561 97.4609 48.561C95.4805 48.561 94.2383 47.2251 94.2031 44.9282H103.156V43.9673C103.156 40.1001 100.906 37.5454 97.2617 37.5454C93.6172 37.5454 91.2852 40.1821 91.2852 44.2134V44.2251C91.2852 48.3032 93.5938 50.8579 97.4023 50.8579ZM97.2969 39.8306C98.9258 39.8306 100.109 40.8735 100.309 42.9712H94.2266C94.4492 40.9321 95.668 39.8306 97.2969 39.8306Z" fill="#353340"/>
<path d="M119.251 49.8337L125.303 45.2102C126.163 44.5529 126.163 43.4478 125.303 42.7904L119.251 38.167" stroke="#353340" stroke-width="1.6" stroke-linecap="round"/>
</svg>
