<svg width="1987" height="234" viewBox="0 0 1987 234" fill="none" xmlns="http://www.w3.org/2000/svg">
<path d="M5.12695 19H8.07617V7.33984H12.3047V4.9082H0.898438V7.33984H5.12695V19ZM17.5488 19.2246C20.8594 19.2246 22.8516 17.1348 22.8516 13.6289V13.6094C22.8516 10.1328 20.8301 8.01367 17.5488 8.01367C14.2676 8.01367 12.2461 10.1426 12.2461 13.6094V13.6289C12.2461 17.125 14.2383 19.2246 17.5488 19.2246ZM17.5488 16.9883C16.0254 16.9883 15.166 15.748 15.166 13.6289V13.6094C15.166 11.5098 16.0352 10.25 17.5488 10.25C19.0527 10.25 19.9316 11.5098 19.9316 13.6094V13.6289C19.9316 15.748 19.0625 16.9883 17.5488 16.9883ZM25.1758 22.5645H28.0273V17.2812H28.2031C28.75 18.4531 29.9512 19.166 31.4258 19.166C34.1504 19.166 35.791 17.0859 35.791 13.6289V13.6094C35.791 10.1816 34.1113 8.07227 31.4258 8.07227C29.9023 8.07227 28.7598 8.75586 28.2031 9.9082H28.0273V8.24805H25.1758V22.5645ZM30.4492 16.8027C28.9551 16.8027 27.998 15.6016 27.998 13.6289V13.6094C27.998 11.6367 28.9453 10.4355 30.4492 10.4355C31.9629 10.4355 32.8906 11.6367 32.8906 13.6094V13.6289C32.8906 15.6016 31.9531 16.8027 30.4492 16.8027ZM39.5801 6.59766C40.459 6.59766 41.1816 5.89453 41.1816 5.01562C41.1816 4.12695 40.459 3.42383 39.5801 3.42383C38.7012 3.42383 37.9688 4.12695 37.9688 5.01562C37.9688 5.89453 38.7012 6.59766 39.5801 6.59766ZM38.1445 19H40.9961V8.24805H38.1445V19ZM48.6035 19.2246C51.4062 19.2246 53.0859 17.7207 53.3789 15.377L53.3887 15.3184H50.752L50.7324 15.3574C50.4785 16.4316 49.7852 16.9883 48.6133 16.9883C47.0898 16.9883 46.2402 15.7871 46.2402 13.6094V13.5898C46.2402 11.4414 47.0801 10.25 48.6133 10.25C49.834 10.25 50.5469 10.9336 50.7324 11.9785L50.7422 11.998H53.3984V11.9688C53.1445 9.56641 51.4551 8.01367 48.6035 8.01367C45.2344 8.01367 43.3398 10.0547 43.3398 13.5898V13.6094C43.3398 17.1836 45.2441 19.2246 48.6035 19.2246ZM67.1289 19.166C69.8145 19.166 71.4941 17.0664 71.4941 13.6289V13.6094C71.4941 10.1523 69.8535 8.07227 67.1289 8.07227C65.6543 8.07227 64.4531 8.79492 63.9062 9.9668H63.7305V4.13672H60.8789V19H63.7305V17.3301H63.9062C64.4629 18.4922 65.6055 19.166 67.1289 19.166ZM66.1523 16.8027C64.6484 16.8027 63.7012 15.6113 63.7012 13.6387V13.6191C63.7012 11.6465 64.6582 10.4355 66.1523 10.4355C67.6562 10.4355 68.5938 11.6465 68.5938 13.6094V13.6289C68.5938 15.6113 67.666 16.8027 66.1523 16.8027ZM76.7383 19.166C78.1445 19.166 79.2773 18.5703 79.8242 17.5742H80V19H82.8125V11.6562C82.8125 9.36133 81.2012 8.01367 78.3496 8.01367C75.6445 8.01367 73.8672 9.26367 73.6426 11.1484L73.6328 11.2363H76.2695L76.2891 11.1973C76.5137 10.5625 77.168 10.2012 78.1934 10.2012C79.3652 10.2012 80 10.7285 80 11.6562V12.5449L77.4023 12.7012C74.7266 12.8574 73.2324 13.9902 73.2324 15.9238V15.9434C73.2324 17.8965 74.6875 19.166 76.7383 19.166ZM76.0156 15.7676V15.748C76.0156 14.9668 76.6113 14.5078 77.832 14.4297L80 14.293V15.084C80 16.2168 79.0137 17.0859 77.6953 17.0859C76.709 17.0859 76.0156 16.5879 76.0156 15.7676ZM89.8828 19.2246C92.6367 19.2246 94.5996 17.8379 94.5996 15.709V15.6992C94.5996 14.1074 93.5938 13.209 91.4453 12.75L89.6582 12.3691C88.5449 12.125 88.1445 11.793 88.1445 11.2168V11.207C88.1445 10.4844 88.8477 10.0254 89.834 10.0254C90.8984 10.0254 91.5332 10.5625 91.6895 11.1387L91.6992 11.1875H94.3457V11.1484C94.2285 9.41992 92.666 8.01367 89.8438 8.01367C87.1582 8.01367 85.3613 9.36133 85.3613 11.3828V11.3926C85.3613 13.0039 86.377 14.0098 88.4277 14.4492L90.2246 14.8301C91.3184 15.0742 91.748 15.4355 91.748 16.0117V16.0312C91.748 16.7441 91.0059 17.2129 89.9121 17.2129C88.7891 17.2129 88.1348 16.7344 87.9102 16.0703L87.8906 16.0312H85.0879L85.0977 16.0703C85.3027 17.916 86.9629 19.2246 89.8828 19.2246ZM101.66 19.2246C104.805 19.2246 106.191 17.4082 106.523 16.0605L106.543 15.9629H103.887L103.857 16.0215C103.662 16.4316 102.969 17.0957 101.719 17.0957C100.205 17.0957 99.2578 16.0703 99.2285 14.3027H106.631V13.4141C106.631 10.1621 104.678 8.01367 101.543 8.01367C98.4082 8.01367 96.4062 10.2109 96.4062 13.6289V13.6387C96.4062 17.0859 98.3887 19.2246 101.66 19.2246ZM101.592 10.1523C102.832 10.1523 103.721 10.9531 103.896 12.5156H99.2578C99.4336 10.9922 100.352 10.1523 101.592 10.1523ZM112.803 19.166C114.316 19.166 115.459 18.4922 116.016 17.3301H116.191V19H119.043V4.13672H116.191V9.9668H116.016C115.479 8.79492 114.277 8.07227 112.803 8.07227C110.078 8.07227 108.438 10.1523 108.438 13.6094V13.6289C108.438 17.0664 110.117 19.166 112.803 19.166ZM113.77 16.8027C112.266 16.8027 111.338 15.6113 111.338 13.6289V13.6094C111.338 11.6465 112.266 10.4355 113.77 10.4355C115.273 10.4355 116.221 11.6465 116.221 13.6191V13.6387C116.221 15.6113 115.283 16.8027 113.77 16.8027ZM130.986 19.166C132.5 19.166 133.643 18.4922 134.199 17.3301H134.375V19H137.227V4.13672H134.375V9.9668H134.199C133.662 8.79492 132.461 8.07227 130.986 8.07227C128.262 8.07227 126.621 10.1523 126.621 13.6094V13.6289C126.621 17.0664 128.301 19.166 130.986 19.166ZM131.953 16.8027C130.449 16.8027 129.521 15.6113 129.521 13.6289V13.6094C129.521 11.6465 130.449 10.4355 131.953 10.4355C133.457 10.4355 134.404 11.6465 134.404 13.6191V13.6387C134.404 15.6113 133.467 16.8027 131.953 16.8027ZM141.631 6.59766C142.51 6.59766 143.232 5.89453 143.232 5.01562C143.232 4.12695 142.51 3.42383 141.631 3.42383C140.752 3.42383 140.02 4.12695 140.02 5.01562C140.02 5.89453 140.752 6.59766 141.631 6.59766ZM140.195 19H143.047V8.24805H140.195V19ZM150.195 19.2246C152.949 19.2246 154.912 17.8379 154.912 15.709V15.6992C154.912 14.1074 153.906 13.209 151.758 12.75L149.971 12.3691C148.857 12.125 148.457 11.793 148.457 11.2168V11.207C148.457 10.4844 149.16 10.0254 150.146 10.0254C151.211 10.0254 151.846 10.5625 152.002 11.1387L152.012 11.1875H154.658V11.1484C154.541 9.41992 152.979 8.01367 150.156 8.01367C147.471 8.01367 145.674 9.36133 145.674 11.3828V11.3926C145.674 13.0039 146.689 14.0098 148.74 14.4492L150.537 14.8301C151.631 15.0742 152.061 15.4355 152.061 16.0117V16.0312C152.061 16.7441 151.318 17.2129 150.225 17.2129C149.102 17.2129 148.447 16.7344 148.223 16.0703L148.203 16.0312H145.4L145.41 16.0703C145.615 17.916 147.275 19.2246 150.195 19.2246ZM161.982 19.2246C164.785 19.2246 166.465 17.7207 166.758 15.377L166.768 15.3184H164.131L164.111 15.3574C163.857 16.4316 163.164 16.9883 161.992 16.9883C160.469 16.9883 159.619 15.7871 159.619 13.6094V13.5898C159.619 11.4414 160.459 10.25 161.992 10.25C163.213 10.25 163.926 10.9336 164.111 11.9785L164.121 11.998H166.777V11.9688C166.523 9.56641 164.834 8.01367 161.982 8.01367C158.613 8.01367 156.719 10.0547 156.719 13.5898V13.6094C156.719 17.1836 158.623 19.2246 161.982 19.2246ZM172.559 19.2246C174.092 19.2246 175.186 18.5117 175.674 17.3398H175.85V19H178.701V8.24805H175.85V14.459C175.85 15.9141 175.088 16.8613 173.682 16.8613C172.334 16.8613 171.758 16.0703 171.758 14.5469V8.24805H168.906V15.2012C168.906 17.7598 170.146 19.2246 172.559 19.2246ZM185.84 19.2246C188.594 19.2246 190.557 17.8379 190.557 15.709V15.6992C190.557 14.1074 189.551 13.209 187.402 12.75L185.615 12.3691C184.502 12.125 184.102 11.793 184.102 11.2168V11.207C184.102 10.4844 184.805 10.0254 185.791 10.0254C186.855 10.0254 187.49 10.5625 187.646 11.1387L187.656 11.1875H190.303V11.1484C190.186 9.41992 188.623 8.01367 185.801 8.01367C183.115 8.01367 181.318 9.36133 181.318 11.3828V11.3926C181.318 13.0039 182.334 14.0098 184.385 14.4492L186.182 14.8301C187.275 15.0742 187.705 15.4355 187.705 16.0117V16.0312C187.705 16.7441 186.963 17.2129 185.869 17.2129C184.746 17.2129 184.092 16.7344 183.867 16.0703L183.848 16.0312H181.045L181.055 16.0703C181.26 17.916 182.92 19.2246 185.84 19.2246ZM196.973 19.2246C199.727 19.2246 201.689 17.8379 201.689 15.709V15.6992C201.689 14.1074 200.684 13.209 198.535 12.75L196.748 12.3691C195.635 12.125 195.234 11.793 195.234 11.2168V11.207C195.234 10.4844 195.938 10.0254 196.924 10.0254C197.988 10.0254 198.623 10.5625 198.779 11.1387L198.789 11.1875H201.436V11.1484C201.318 9.41992 199.756 8.01367 196.934 8.01367C194.248 8.01367 192.451 9.36133 192.451 11.3828V11.3926C192.451 13.0039 193.467 14.0098 195.518 14.4492L197.314 14.8301C198.408 15.0742 198.838 15.4355 198.838 16.0117V16.0312C198.838 16.7441 198.096 17.2129 197.002 17.2129C195.879 17.2129 195.225 16.7344 195 16.0703L194.98 16.0312H192.178L192.188 16.0703C192.393 17.916 194.053 19.2246 196.973 19.2246ZM205.479 6.59766C206.357 6.59766 207.08 5.89453 207.08 5.01562C207.08 4.12695 206.357 3.42383 205.479 3.42383C204.6 3.42383 203.867 4.12695 203.867 5.01562C203.867 5.89453 204.6 6.59766 205.479 6.59766ZM204.043 19H206.895V8.24805H204.043V19ZM214.541 19.2246C217.852 19.2246 219.844 17.1348 219.844 13.6289V13.6094C219.844 10.1328 217.822 8.01367 214.541 8.01367C211.26 8.01367 209.238 10.1426 209.238 13.6094V13.6289C209.238 17.125 211.23 19.2246 214.541 19.2246ZM214.541 16.9883C213.018 16.9883 212.158 15.748 212.158 13.6289V13.6094C212.158 11.5098 213.027 10.25 214.541 10.25C216.045 10.25 216.924 11.5098 216.924 13.6094V13.6289C216.924 15.748 216.055 16.9883 214.541 16.9883ZM222.168 19H225.02V12.7793C225.02 11.3242 225.82 10.377 227.139 10.377C228.486 10.377 229.111 11.1777 229.111 12.6914V19H231.963V12.0469C231.963 9.47852 230.674 8.01367 228.281 8.01367C226.748 8.01367 225.684 8.74609 225.195 9.9082H225.02V8.24805H222.168V19ZM239.004 19.2246C241.758 19.2246 243.721 17.8379 243.721 15.709V15.6992C243.721 14.1074 242.715 13.209 240.566 12.75L238.779 12.3691C237.666 12.125 237.266 11.793 237.266 11.2168V11.207C237.266 10.4844 237.969 10.0254 238.955 10.0254C240.02 10.0254 240.654 10.5625 240.811 11.1387L240.82 11.1875H243.467V11.1484C243.35 9.41992 241.787 8.01367 238.965 8.01367C236.279 8.01367 234.482 9.36133 234.482 11.3828V11.3926C234.482 13.0039 235.498 14.0098 237.549 14.4492L239.346 14.8301C240.439 15.0742 240.869 15.4355 240.869 16.0117V16.0312C240.869 16.7441 240.127 17.2129 239.033 17.2129C237.91 17.2129 237.256 16.7344 237.031 16.0703L237.012 16.0312H234.209L234.219 16.0703C234.424 17.916 236.084 19.2246 239.004 19.2246Z" fill="#353340" fill-opacity="0.6"/>
<path d="M1690.75 16.3613C1694.26 16.3613 1696.43 14.5938 1696.43 11.8008V11.791C1696.43 9.59375 1695.13 8.40234 1692.15 7.78711L1690.66 7.48438C1689 7.14258 1688.32 6.5957 1688.32 5.67773V5.66797C1688.32 4.61328 1689.28 3.94922 1690.74 3.93945C1692.22 3.93945 1693.2 4.64258 1693.37 5.64844L1693.38 5.76562H1696.16L1696.15 5.63867C1695.96 3.28516 1694.03 1.54688 1690.74 1.54688C1687.61 1.54688 1685.37 3.27539 1685.37 5.89258V5.90234C1685.37 8.04102 1686.63 9.4082 1689.56 10.0039L1691.04 10.3066C1692.79 10.668 1693.48 11.1855 1693.48 12.1133V12.123C1693.48 13.207 1692.4 13.959 1690.83 13.959C1689.18 13.959 1688.03 13.2461 1687.93 12.1914L1687.92 12.0938H1685.07L1685.08 12.25C1685.25 14.75 1687.38 16.3613 1690.75 16.3613ZM1699.04 16H1701.89V9.7793C1701.89 8.32422 1702.69 7.37695 1704.01 7.37695C1705.36 7.37695 1705.98 8.17773 1705.98 9.69141V16H1708.83V9.04688C1708.83 6.47852 1707.54 5.01367 1705.15 5.01367C1703.62 5.01367 1702.55 5.74609 1702.07 6.9082H1701.89V1.13672H1699.04V16ZM1714.53 16.166C1715.93 16.166 1717.07 15.5703 1717.61 14.5742H1717.79V16H1720.6V8.65625C1720.6 6.36133 1718.99 5.01367 1716.14 5.01367C1713.43 5.01367 1711.66 6.26367 1711.43 8.14844L1711.42 8.23633H1714.06L1714.08 8.19727C1714.3 7.5625 1714.96 7.20117 1715.98 7.20117C1717.15 7.20117 1717.79 7.72852 1717.79 8.65625V9.54492L1715.19 9.70117C1712.52 9.85742 1711.02 10.9902 1711.02 12.9238V12.9434C1711.02 14.8965 1712.48 16.166 1714.53 16.166ZM1713.8 12.7676V12.748C1713.8 11.9668 1714.4 11.5078 1715.62 11.4297L1717.79 11.293V12.084C1717.79 13.2168 1716.8 14.0859 1715.48 14.0859C1714.5 14.0859 1713.8 13.5879 1713.8 12.7676ZM1723.39 16H1726.25V9.98438C1726.25 8.46094 1727.27 7.5332 1728.89 7.5332C1729.33 7.5332 1729.77 7.60156 1730.2 7.69922V5.20898C1729.92 5.13086 1729.52 5.07227 1729.14 5.07227C1727.74 5.07227 1726.76 5.75586 1726.42 6.91797H1726.25V5.24805H1723.39V16ZM1736.58 16.2246C1739.72 16.2246 1741.11 14.4082 1741.44 13.0605L1741.46 12.9629H1738.8L1738.78 13.0215C1738.58 13.4316 1737.89 14.0957 1736.64 14.0957C1735.12 14.0957 1734.18 13.0703 1734.15 11.3027H1741.55V10.4141C1741.55 7.16211 1739.6 5.01367 1736.46 5.01367C1733.33 5.01367 1731.32 7.21094 1731.32 10.6289V10.6387C1731.32 14.0859 1733.31 16.2246 1736.58 16.2246ZM1736.51 7.15234C1737.75 7.15234 1738.64 7.95312 1738.81 9.51562H1734.18C1734.35 7.99219 1735.27 7.15234 1736.51 7.15234ZM1750.32 19.7891C1752.97 19.7891 1754.39 18.832 1755.35 15.9902L1759.01 5.24805H1756L1753.75 13.3926H1753.55L1751.29 5.24805H1748.16L1751.94 16L1751.84 16.4102C1751.64 17.25 1751.05 17.6406 1750.04 17.6406C1749.77 17.6406 1749.49 17.6309 1749.29 17.6113V19.7598C1749.62 19.7793 1749.99 19.7891 1750.32 19.7891ZM1765.32 16.2246C1768.63 16.2246 1770.62 14.1348 1770.62 10.6289V10.6094C1770.62 7.13281 1768.6 5.01367 1765.32 5.01367C1762.04 5.01367 1760.02 7.14258 1760.02 10.6094V10.6289C1760.02 14.125 1762.01 16.2246 1765.32 16.2246ZM1765.32 13.9883C1763.79 13.9883 1762.94 12.748 1762.94 10.6289V10.6094C1762.94 8.50977 1763.8 7.25 1765.32 7.25C1766.82 7.25 1767.7 8.50977 1767.7 10.6094V10.6289C1767.7 12.748 1766.83 13.9883 1765.32 13.9883ZM1776.5 16.2246C1778.03 16.2246 1779.13 15.5117 1779.62 14.3398H1779.79V16H1782.64V5.24805H1779.79V11.459C1779.79 12.9141 1779.03 13.8613 1777.62 13.8613C1776.28 13.8613 1775.7 13.0703 1775.7 11.5469V5.24805H1772.85V12.2012C1772.85 14.7598 1774.09 16.2246 1776.5 16.2246ZM1785.5 16H1788.36V9.98438C1788.36 8.46094 1789.38 7.5332 1791 7.5332C1791.44 7.5332 1791.88 7.60156 1792.31 7.69922V5.20898C1792.03 5.13086 1791.63 5.07227 1791.25 5.07227C1789.85 5.07227 1788.87 5.75586 1788.53 6.91797H1788.36V5.24805H1785.5V16ZM1799.37 19.5645H1802.22V14.2812H1802.4C1802.95 15.4531 1804.15 16.166 1805.62 16.166C1808.35 16.166 1809.99 14.0859 1809.99 10.6289V10.6094C1809.99 7.18164 1808.31 5.07227 1805.62 5.07227C1804.1 5.07227 1802.96 5.75586 1802.4 6.9082H1802.22V5.24805H1799.37V19.5645ZM1804.64 13.8027C1803.15 13.8027 1802.19 12.6016 1802.19 10.6289V10.6094C1802.19 8.63672 1803.14 7.43555 1804.64 7.43555C1806.16 7.43555 1807.09 8.63672 1807.09 10.6094V10.6289C1807.09 12.6016 1806.15 13.8027 1804.64 13.8027ZM1812.42 16H1815.27V9.7793C1815.27 8.32422 1816.07 7.37695 1817.39 7.37695C1818.74 7.37695 1819.36 8.17773 1819.36 9.69141V16H1822.21V9.04688C1822.21 6.47852 1820.92 5.01367 1818.53 5.01367C1817 5.01367 1815.93 5.74609 1815.45 6.9082H1815.27V1.13672H1812.42V16ZM1829.75 16.2246C1833.06 16.2246 1835.05 14.1348 1835.05 10.6289V10.6094C1835.05 7.13281 1833.03 5.01367 1829.75 5.01367C1826.47 5.01367 1824.45 7.14258 1824.45 10.6094V10.6289C1824.45 14.125 1826.44 16.2246 1829.75 16.2246ZM1829.75 13.9883C1828.23 13.9883 1827.37 12.748 1827.37 10.6289V10.6094C1827.37 8.50977 1828.24 7.25 1829.75 7.25C1831.26 7.25 1832.13 8.50977 1832.13 10.6094V10.6289C1832.13 12.748 1831.27 13.9883 1829.75 13.9883ZM1841.84 16.0391C1842.39 16.0391 1842.92 15.9805 1843.27 15.9121V13.793C1842.99 13.8223 1842.8 13.8418 1842.43 13.8418C1841.46 13.8418 1841.05 13.4121 1841.05 12.4453V7.39648H1843.27V5.24805H1841.05V2.67969H1838.17V5.24805H1836.51V7.39648H1838.17V13.0996C1838.17 15.1895 1839.22 16.0391 1841.84 16.0391ZM1850.34 16.2246C1853.65 16.2246 1855.64 14.1348 1855.64 10.6289V10.6094C1855.64 7.13281 1853.62 5.01367 1850.34 5.01367C1847.06 5.01367 1845.04 7.14258 1845.04 10.6094V10.6289C1845.04 14.125 1847.03 16.2246 1850.34 16.2246ZM1850.34 13.9883C1848.81 13.9883 1847.96 12.748 1847.96 10.6289V10.6094C1847.96 8.50977 1848.82 7.25 1850.34 7.25C1851.84 7.25 1852.72 8.50977 1852.72 10.6094V10.6289C1852.72 12.748 1851.85 13.9883 1850.34 13.9883ZM1862.24 16.2246C1865 16.2246 1866.96 14.8379 1866.96 12.709V12.6992C1866.96 11.1074 1865.95 10.209 1863.8 9.75L1862.02 9.36914C1860.9 9.125 1860.5 8.79297 1860.5 8.2168V8.20703C1860.5 7.48438 1861.21 7.02539 1862.19 7.02539C1863.26 7.02539 1863.89 7.5625 1864.05 8.13867L1864.06 8.1875H1866.71V8.14844C1866.59 6.41992 1865.03 5.01367 1862.2 5.01367C1859.52 5.01367 1857.72 6.36133 1857.72 8.38281V8.39258C1857.72 10.0039 1858.74 11.0098 1860.79 11.4492L1862.58 11.8301C1863.68 12.0742 1864.11 12.4355 1864.11 13.0117V13.0312C1864.11 13.7441 1863.37 14.2129 1862.27 14.2129C1861.15 14.2129 1860.49 13.7344 1860.27 13.0703L1860.25 13.0312H1857.45L1857.46 13.0703C1857.66 14.916 1859.32 16.2246 1862.24 16.2246ZM1876.49 16H1879.48L1881.38 8.5H1881.56L1883.48 16H1886.51L1889.37 5.24805H1886.55L1884.95 13.0312H1884.77L1882.88 5.24805H1880.16L1878.28 13.0312H1878.1L1876.5 5.24805H1873.62L1876.49 16ZM1892.86 3.59766C1893.74 3.59766 1894.46 2.89453 1894.46 2.01562C1894.46 1.12695 1893.74 0.423828 1892.86 0.423828C1891.98 0.423828 1891.25 1.12695 1891.25 2.01562C1891.25 2.89453 1891.98 3.59766 1892.86 3.59766ZM1891.42 16H1894.27V5.24805H1891.42V16ZM1901.61 16.0391C1902.15 16.0391 1902.68 15.9805 1903.03 15.9121V13.793C1902.76 13.8223 1902.56 13.8418 1902.19 13.8418C1901.23 13.8418 1900.82 13.4121 1900.82 12.4453V7.39648H1903.03V5.24805H1900.82V2.67969H1897.94V5.24805H1896.28V7.39648H1897.94V13.0996C1897.94 15.1895 1898.99 16.0391 1901.61 16.0391ZM1905.5 16H1908.36V9.7793C1908.36 8.32422 1909.16 7.37695 1910.47 7.37695C1911.82 7.37695 1912.45 8.17773 1912.45 9.69141V16H1915.3V9.04688C1915.3 6.47852 1914.01 5.01367 1911.62 5.01367C1910.08 5.01367 1909.02 5.74609 1908.53 6.9082H1908.36V1.13672H1905.5V16ZM1927.99 16.2246C1931.3 16.2246 1933.3 14.1348 1933.3 10.6289V10.6094C1933.3 7.13281 1931.28 5.01367 1927.99 5.01367C1924.71 5.01367 1922.69 7.14258 1922.69 10.6094V10.6289C1922.69 14.125 1924.68 16.2246 1927.99 16.2246ZM1927.99 13.9883C1926.47 13.9883 1925.61 12.748 1925.61 10.6289V10.6094C1925.61 8.50977 1926.48 7.25 1927.99 7.25C1929.5 7.25 1930.38 8.50977 1930.38 10.6094V10.6289C1930.38 12.748 1929.51 13.9883 1927.99 13.9883ZM1940.08 16.0391C1940.63 16.0391 1941.16 15.9805 1941.51 15.9121V13.793C1941.24 13.8223 1941.04 13.8418 1940.67 13.8418C1939.7 13.8418 1939.29 13.4121 1939.29 12.4453V7.39648H1941.51V5.24805H1939.29V2.67969H1936.41V5.24805H1934.75V7.39648H1936.41V13.0996C1936.41 15.1895 1937.47 16.0391 1940.08 16.0391ZM1943.98 16H1946.83V9.7793C1946.83 8.32422 1947.63 7.37695 1948.95 7.37695C1950.3 7.37695 1950.92 8.17773 1950.92 9.69141V16H1953.78V9.04688C1953.78 6.47852 1952.49 5.01367 1950.09 5.01367C1948.56 5.01367 1947.5 5.74609 1947.01 6.9082H1946.83V1.13672H1943.98V16ZM1961.27 16.2246C1964.41 16.2246 1965.8 14.4082 1966.13 13.0605L1966.15 12.9629H1963.49L1963.46 13.0215C1963.27 13.4316 1962.57 14.0957 1961.32 14.0957C1959.81 14.0957 1958.86 13.0703 1958.83 11.3027H1966.24V10.4141C1966.24 7.16211 1964.28 5.01367 1961.15 5.01367C1958.01 5.01367 1956.01 7.21094 1956.01 10.6289V10.6387C1956.01 14.0859 1957.99 16.2246 1961.27 16.2246ZM1961.2 7.15234C1962.44 7.15234 1963.33 7.95312 1963.5 9.51562H1958.86C1959.04 7.99219 1959.96 7.15234 1961.2 7.15234ZM1968.57 16H1971.42V9.98438C1971.42 8.46094 1972.45 7.5332 1974.07 7.5332C1974.51 7.5332 1974.95 7.60156 1975.38 7.69922V5.20898C1975.09 5.13086 1974.69 5.07227 1974.31 5.07227C1972.92 5.07227 1971.94 5.75586 1971.6 6.91797H1971.42V5.24805H1968.57V16ZM1981.3 16.2246C1984.06 16.2246 1986.02 14.8379 1986.02 12.709V12.6992C1986.02 11.1074 1985.02 10.209 1982.87 9.75L1981.08 9.36914C1979.97 9.125 1979.57 8.79297 1979.57 8.2168V8.20703C1979.57 7.48438 1980.27 7.02539 1981.26 7.02539C1982.32 7.02539 1982.96 7.5625 1983.11 8.13867L1983.12 8.1875H1985.77V8.14844C1985.65 6.41992 1984.09 5.01367 1981.27 5.01367C1978.58 5.01367 1976.78 6.36133 1976.78 8.38281V8.39258C1976.78 10.0039 1977.8 11.0098 1979.85 11.4492L1981.65 11.8301C1982.74 12.0742 1983.17 12.4355 1983.17 13.0117V13.0312C1983.17 13.7441 1982.43 14.2129 1981.33 14.2129C1980.21 14.2129 1979.56 13.7344 1979.33 13.0703L1979.31 13.0312H1976.51L1976.52 13.0703C1976.72 14.916 1978.38 16.2246 1981.3 16.2246Z" fill="#353340" fill-opacity="0.6"/>
<path d="M563.709 190H572.928V187.568H566.658V175.908H563.709V190ZM576.775 177.598C577.654 177.598 578.377 176.895 578.377 176.016C578.377 175.127 577.654 174.424 576.775 174.424C575.896 174.424 575.164 175.127 575.164 176.016C575.164 176.895 575.896 177.598 576.775 177.598ZM575.34 190H578.191V179.248H575.34V190ZM585.34 190.225C588.094 190.225 590.057 188.838 590.057 186.709V186.699C590.057 185.107 589.051 184.209 586.902 183.75L585.115 183.369C584.002 183.125 583.602 182.793 583.602 182.217V182.207C583.602 181.484 584.305 181.025 585.291 181.025C586.355 181.025 586.99 181.562 587.146 182.139L587.156 182.188H589.803V182.148C589.686 180.42 588.123 179.014 585.301 179.014C582.615 179.014 580.818 180.361 580.818 182.383V182.393C580.818 184.004 581.834 185.01 583.885 185.449L585.682 185.83C586.775 186.074 587.205 186.436 587.205 187.012V187.031C587.205 187.744 586.463 188.213 585.369 188.213C584.246 188.213 583.592 187.734 583.367 187.07L583.348 187.031H580.545L580.555 187.07C580.76 188.916 582.42 190.225 585.34 190.225ZM596.795 190.039C597.342 190.039 597.869 189.98 598.221 189.912V187.793C597.947 187.822 597.752 187.842 597.381 187.842C596.414 187.842 596.004 187.412 596.004 186.445V181.396H598.221V179.248H596.004V176.68H593.123V179.248H591.463V181.396H593.123V187.1C593.123 189.189 594.178 190.039 596.795 190.039ZM605.242 190.225C608.387 190.225 609.773 188.408 610.105 187.061L610.125 186.963H607.469L607.439 187.021C607.244 187.432 606.551 188.096 605.301 188.096C603.787 188.096 602.84 187.07 602.811 185.303H610.213V184.414C610.213 181.162 608.26 179.014 605.125 179.014C601.99 179.014 599.988 181.211 599.988 184.629V184.639C599.988 188.086 601.971 190.225 605.242 190.225ZM605.174 181.152C606.414 181.152 607.303 181.953 607.479 183.516H602.84C603.016 181.992 603.934 181.152 605.174 181.152ZM612.547 190H615.398V183.779C615.398 182.324 616.199 181.377 617.518 181.377C618.865 181.377 619.49 182.178 619.49 183.691V190H622.342V183.047C622.342 180.479 621.053 179.014 618.66 179.014C617.127 179.014 616.062 179.746 615.574 180.908H615.398V179.248H612.547V190ZM634.725 190.039C635.271 190.039 635.799 189.98 636.15 189.912V187.793C635.877 187.822 635.682 187.842 635.311 187.842C634.344 187.842 633.934 187.412 633.934 186.445V181.396H636.15V179.248H633.934V176.68H631.053V179.248H629.393V181.396H631.053V187.1C631.053 189.189 632.107 190.039 634.725 190.039ZM643.221 190.225C646.531 190.225 648.523 188.135 648.523 184.629V184.609C648.523 181.133 646.502 179.014 643.221 179.014C639.939 179.014 637.918 181.143 637.918 184.609V184.629C637.918 188.125 639.91 190.225 643.221 190.225ZM643.221 187.988C641.697 187.988 640.838 186.748 640.838 184.629V184.609C640.838 182.51 641.707 181.25 643.221 181.25C644.725 181.25 645.604 182.51 645.604 184.609V184.629C645.604 186.748 644.734 187.988 643.221 187.988ZM656.004 190H658.855V183.516C658.855 182.285 659.637 181.377 660.75 181.377C661.863 181.377 662.518 182.051 662.518 183.203V190H665.369V183.389C665.369 182.227 666.111 181.377 667.264 181.377C668.455 181.377 669.041 182.031 669.041 183.33V190H671.893V182.617C671.893 180.4 670.555 179.014 668.416 179.014C666.912 179.014 665.662 179.805 665.174 180.996H664.998C664.559 179.756 663.475 179.014 662.01 179.014C660.604 179.014 659.49 179.717 659.031 180.928H658.855V179.248H656.004V190ZM678.211 190.225C679.744 190.225 680.838 189.512 681.326 188.34H681.502V190H684.354V179.248H681.502V185.459C681.502 186.914 680.74 187.861 679.334 187.861C677.986 187.861 677.41 187.07 677.41 185.547V179.248H674.559V186.201C674.559 188.76 675.799 190.225 678.211 190.225ZM691.492 190.225C694.246 190.225 696.209 188.838 696.209 186.709V186.699C696.209 185.107 695.203 184.209 693.055 183.75L691.268 183.369C690.154 183.125 689.754 182.793 689.754 182.217V182.207C689.754 181.484 690.457 181.025 691.443 181.025C692.508 181.025 693.143 181.562 693.299 182.139L693.309 182.188H695.955V182.148C695.838 180.42 694.275 179.014 691.453 179.014C688.768 179.014 686.971 180.361 686.971 182.383V182.393C686.971 184.004 687.986 185.01 690.037 185.449L691.834 185.83C692.928 186.074 693.357 186.436 693.357 187.012V187.031C693.357 187.744 692.615 188.213 691.521 188.213C690.398 188.213 689.744 187.734 689.52 187.07L689.5 187.031H686.697L686.707 187.07C686.912 188.916 688.572 190.225 691.492 190.225ZM699.998 177.598C700.877 177.598 701.6 176.895 701.6 176.016C701.6 175.127 700.877 174.424 699.998 174.424C699.119 174.424 698.387 175.127 698.387 176.016C698.387 176.895 699.119 177.598 699.998 177.598ZM698.562 190H701.414V179.248H698.562V190ZM709.021 190.225C711.824 190.225 713.504 188.721 713.797 186.377L713.807 186.318H711.17L711.15 186.357C710.896 187.432 710.203 187.988 709.031 187.988C707.508 187.988 706.658 186.787 706.658 184.609V184.59C706.658 182.441 707.498 181.25 709.031 181.25C710.252 181.25 710.965 181.934 711.15 182.979L711.16 182.998H713.816V182.969C713.562 180.566 711.873 179.014 709.021 179.014C705.652 179.014 703.758 181.055 703.758 184.59V184.609C703.758 188.184 705.662 190.225 709.021 190.225ZM725.662 190.039C726.209 190.039 726.736 189.98 727.088 189.912V187.793C726.814 187.822 726.619 187.842 726.248 187.842C725.281 187.842 724.871 187.412 724.871 186.445V181.396H727.088V179.248H724.871V176.68H721.99V179.248H720.33V181.396H721.99V187.1C721.99 189.189 723.045 190.039 725.662 190.039ZM734.158 190.225C737.469 190.225 739.461 188.135 739.461 184.629V184.609C739.461 181.133 737.439 179.014 734.158 179.014C730.877 179.014 728.855 181.143 728.855 184.609V184.629C728.855 188.125 730.848 190.225 734.158 190.225ZM734.158 187.988C732.635 187.988 731.775 186.748 731.775 184.629V184.609C731.775 182.51 732.645 181.25 734.158 181.25C735.662 181.25 736.541 182.51 736.541 184.609V184.629C736.541 186.748 735.672 187.988 734.158 187.988ZM746.531 193.779C749.783 193.779 751.844 192.188 751.844 189.668V179.248H748.992V181.006H748.855C748.279 179.795 747.127 179.072 745.652 179.072C742.898 179.072 741.229 181.201 741.229 184.365V184.385C741.229 187.441 742.898 189.531 745.604 189.531C747.098 189.531 748.23 188.916 748.826 187.783H749.002V189.785C749.002 191.035 748.113 191.748 746.59 191.748C745.32 191.748 744.578 191.318 744.422 190.693L744.412 190.654H741.59V190.703C741.824 192.529 743.553 193.779 746.531 193.779ZM746.57 187.344C745.027 187.344 744.148 186.143 744.148 184.375V184.355C744.148 182.588 745.037 181.387 746.57 181.387C748.104 181.387 749.031 182.588 749.031 184.355V184.375C749.031 186.143 748.113 187.344 746.57 187.344ZM759.422 190.225C762.566 190.225 763.953 188.408 764.285 187.061L764.305 186.963H761.648L761.619 187.021C761.424 187.432 760.73 188.096 759.48 188.096C757.967 188.096 757.02 187.07 756.99 185.303H764.393V184.414C764.393 181.162 762.439 179.014 759.305 179.014C756.17 179.014 754.168 181.211 754.168 184.629V184.639C754.168 188.086 756.15 190.225 759.422 190.225ZM759.354 181.152C760.594 181.152 761.482 181.953 761.658 183.516H757.02C757.195 181.992 758.113 181.152 759.354 181.152ZM771.189 190.039C771.736 190.039 772.264 189.98 772.615 189.912V187.793C772.342 187.822 772.146 187.842 771.775 187.842C770.809 187.842 770.398 187.412 770.398 186.445V181.396H772.615V179.248H770.398V176.68H767.518V179.248H765.857V181.396H767.518V187.1C767.518 189.189 768.572 190.039 771.189 190.039ZM775.086 190H777.938V183.779C777.938 182.324 778.738 181.377 780.057 181.377C781.404 181.377 782.029 182.178 782.029 183.691V190H784.881V183.047C784.881 180.479 783.592 179.014 781.199 179.014C779.666 179.014 778.602 179.746 778.113 180.908H777.938V175.137H775.086V190ZM792.371 190.225C795.516 190.225 796.902 188.408 797.234 187.061L797.254 186.963H794.598L794.568 187.021C794.373 187.432 793.68 188.096 792.43 188.096C790.916 188.096 789.969 187.07 789.939 185.303H797.342V184.414C797.342 181.162 795.389 179.014 792.254 179.014C789.119 179.014 787.117 181.211 787.117 184.629V184.639C787.117 188.086 789.1 190.225 792.371 190.225ZM792.303 181.152C793.543 181.152 794.432 181.953 794.607 183.516H789.969C790.145 181.992 791.062 181.152 792.303 181.152ZM799.676 190H802.527V183.984C802.527 182.461 803.553 181.533 805.174 181.533C805.613 181.533 806.053 181.602 806.482 181.699V179.209C806.199 179.131 805.799 179.072 805.418 179.072C804.021 179.072 803.045 179.756 802.703 180.918H802.527V179.248H799.676V190Z" fill="#353340" fill-opacity="0.6"/>
<path d="M1118.87 162.361C1123.03 162.361 1125.65 159.51 1125.65 154.959V154.939C1125.65 150.389 1123.02 147.547 1118.87 147.547C1114.72 147.547 1112.08 150.379 1112.08 154.939V154.959C1112.08 159.51 1114.68 162.361 1118.87 162.361ZM1118.87 159.861C1116.55 159.861 1115.09 157.938 1115.09 154.959V154.939C1115.09 151.951 1116.58 150.047 1118.87 150.047C1121.16 150.047 1122.64 151.951 1122.64 154.939V154.959C1122.64 157.938 1121.17 159.861 1118.87 159.861ZM1128.17 162H1131.02V155.984C1131.02 154.461 1132.04 153.533 1133.67 153.533C1134.11 153.533 1134.54 153.602 1134.97 153.699V151.209C1134.69 151.131 1134.29 151.072 1133.91 151.072C1132.51 151.072 1131.54 151.756 1131.2 152.918H1131.02V151.248H1128.17V162ZM1141.37 165.779C1144.62 165.779 1146.68 164.188 1146.68 161.668V151.248H1143.83V153.006H1143.7C1143.12 151.795 1141.97 151.072 1140.49 151.072C1137.74 151.072 1136.07 153.201 1136.07 156.365V156.385C1136.07 159.441 1137.74 161.531 1140.44 161.531C1141.94 161.531 1143.07 160.916 1143.67 159.783H1143.84V161.785C1143.84 163.035 1142.95 163.748 1141.43 163.748C1140.16 163.748 1139.42 163.318 1139.26 162.693L1139.25 162.654H1136.43V162.703C1136.66 164.529 1138.39 165.779 1141.37 165.779ZM1141.41 159.344C1139.87 159.344 1138.99 158.143 1138.99 156.375V156.355C1138.99 154.588 1139.88 153.387 1141.41 153.387C1142.94 153.387 1143.87 154.588 1143.87 156.355V156.375C1143.87 158.143 1142.95 159.344 1141.41 159.344ZM1152.46 162.166C1153.87 162.166 1155 161.57 1155.55 160.574H1155.73V162H1158.54V154.656C1158.54 152.361 1156.93 151.014 1154.08 151.014C1151.37 151.014 1149.59 152.264 1149.37 154.148L1149.36 154.236H1152L1152.02 154.197C1152.24 153.562 1152.89 153.201 1153.92 153.201C1155.09 153.201 1155.73 153.729 1155.73 154.656V155.545L1153.13 155.701C1150.45 155.857 1148.96 156.99 1148.96 158.924V158.943C1148.96 160.896 1150.41 162.166 1152.46 162.166ZM1151.74 158.768V158.748C1151.74 157.967 1152.34 157.508 1153.56 157.43L1155.73 157.293V158.084C1155.73 159.217 1154.74 160.086 1153.42 160.086C1152.44 160.086 1151.74 159.588 1151.74 158.768ZM1161.33 162H1164.18V155.779C1164.18 154.324 1164.98 153.377 1166.3 153.377C1167.65 153.377 1168.28 154.178 1168.28 155.691V162H1171.13V155.047C1171.13 152.479 1169.84 151.014 1167.45 151.014C1165.91 151.014 1164.85 151.746 1164.36 152.908H1164.18V151.248H1161.33V162ZM1175.35 149.598C1176.22 149.598 1176.95 148.895 1176.95 148.016C1176.95 147.127 1176.22 146.424 1175.35 146.424C1174.47 146.424 1173.73 147.127 1173.73 148.016C1173.73 148.895 1174.47 149.598 1175.35 149.598ZM1173.91 162H1176.76V151.248H1173.91V162ZM1179.39 162H1188.36V159.852H1183.07V159.676L1188.24 153.064V151.248H1179.47V153.396H1184.87V153.572L1179.39 160.359V162ZM1195.43 162.225C1198.58 162.225 1199.96 160.408 1200.3 159.061L1200.32 158.963H1197.66L1197.63 159.021C1197.44 159.432 1196.74 160.096 1195.49 160.096C1193.98 160.096 1193.03 159.07 1193 157.303H1200.4V156.414C1200.4 153.162 1198.45 151.014 1195.32 151.014C1192.18 151.014 1190.18 153.211 1190.18 156.629V156.639C1190.18 160.086 1192.16 162.225 1195.43 162.225ZM1195.37 153.152C1196.61 153.152 1197.49 153.953 1197.67 155.516H1193.03C1193.21 153.992 1194.12 153.152 1195.37 153.152ZM1210.82 162.166C1212.23 162.166 1213.36 161.57 1213.91 160.574H1214.09V162H1216.9V154.656C1216.9 152.361 1215.29 151.014 1212.44 151.014C1209.73 151.014 1207.95 152.264 1207.73 154.148L1207.72 154.236H1210.36L1210.38 154.197C1210.6 153.562 1211.25 153.201 1212.28 153.201C1213.45 153.201 1214.09 153.729 1214.09 154.656V155.545L1211.49 155.701C1208.81 155.857 1207.32 156.99 1207.32 158.924V158.943C1207.32 160.896 1208.77 162.166 1210.82 162.166ZM1210.1 158.768V158.748C1210.1 157.967 1210.7 157.508 1211.92 157.43L1214.09 157.293V158.084C1214.09 159.217 1213.1 160.086 1211.78 160.086C1210.79 160.086 1210.1 159.588 1210.1 158.768ZM1219.69 162H1222.54V155.779C1222.54 154.324 1223.34 153.377 1224.66 153.377C1226.01 153.377 1226.63 154.178 1226.63 155.691V162H1229.49V155.047C1229.49 152.479 1228.2 151.014 1225.8 151.014C1224.27 151.014 1223.21 151.746 1222.72 152.908H1222.54V151.248H1219.69V162ZM1242.13 162.225C1245.28 162.225 1246.66 160.408 1247 159.061L1247.02 158.963H1244.36L1244.33 159.021C1244.13 159.432 1243.44 160.096 1242.19 160.096C1240.68 160.096 1239.73 159.07 1239.7 157.303H1247.1V156.414C1247.1 153.162 1245.15 151.014 1242.02 151.014C1238.88 151.014 1236.88 153.211 1236.88 156.629V156.639C1236.88 160.086 1238.86 162.225 1242.13 162.225ZM1242.06 153.152C1243.3 153.152 1244.19 153.953 1244.37 155.516H1239.73C1239.91 153.992 1240.82 153.152 1242.06 153.152ZM1251.96 162H1255.16L1258.88 151.248H1255.88L1253.68 159.334H1253.5L1251.27 151.248H1248.22L1251.96 162ZM1265.08 162.225C1268.23 162.225 1269.61 160.408 1269.95 159.061L1269.96 158.963H1267.31L1267.28 159.021C1267.08 159.432 1266.39 160.096 1265.14 160.096C1263.63 160.096 1262.68 159.07 1262.65 157.303H1270.05V156.414C1270.05 153.162 1268.1 151.014 1264.96 151.014C1261.83 151.014 1259.83 153.211 1259.83 156.629V156.639C1259.83 160.086 1261.81 162.225 1265.08 162.225ZM1265.01 153.152C1266.25 153.152 1267.14 153.953 1267.32 155.516H1262.68C1262.86 153.992 1263.77 153.152 1265.01 153.152ZM1272.39 162H1275.24V155.779C1275.24 154.324 1276.04 153.377 1277.36 153.377C1278.71 153.377 1279.33 154.178 1279.33 155.691V162H1282.18V155.047C1282.18 152.479 1280.89 151.014 1278.5 151.014C1276.97 151.014 1275.9 151.746 1275.41 152.908H1275.24V151.248H1272.39V162ZM1289.41 162.039C1289.96 162.039 1290.48 161.98 1290.83 161.912V159.793C1290.56 159.822 1290.37 159.842 1289.99 159.842C1289.03 159.842 1288.62 159.412 1288.62 158.445V153.396H1290.83V151.248H1288.62V148.68H1285.74V151.248H1284.08V153.396H1285.74V159.1C1285.74 161.189 1286.79 162.039 1289.41 162.039Z" fill="#353340" fill-opacity="0.6"/>
</svg>
