<svg width="1987" height="198" viewBox="0 0 1987 198" fill="none" xmlns="http://www.w3.org/2000/svg">
<path d="M5.12695 22H8.07617V10.3398H12.3047V7.9082H0.898438V10.3398H5.12695V22ZM17.5488 22.2246C20.8594 22.2246 22.8516 20.1348 22.8516 16.6289V16.6094C22.8516 13.1328 20.8301 11.0137 17.5488 11.0137C14.2676 11.0137 12.2461 13.1426 12.2461 16.6094V16.6289C12.2461 20.125 14.2383 22.2246 17.5488 22.2246ZM17.5488 19.9883C16.0254 19.9883 15.166 18.748 15.166 16.6289V16.6094C15.166 14.5098 16.0352 13.25 17.5488 13.25C19.0527 13.25 19.9316 14.5098 19.9316 16.6094V16.6289C19.9316 18.748 19.0625 19.9883 17.5488 19.9883ZM25.1758 25.5645H28.0273V20.2812H28.2031C28.75 21.4531 29.9512 22.166 31.4258 22.166C34.1504 22.166 35.791 20.0859 35.791 16.6289V16.6094C35.791 13.1816 34.1113 11.0723 31.4258 11.0723C29.9023 11.0723 28.7598 11.7559 28.2031 12.9082H28.0273V11.248H25.1758V25.5645ZM30.4492 19.8027C28.9551 19.8027 27.998 18.6016 27.998 16.6289V16.6094C27.998 14.6367 28.9453 13.4355 30.4492 13.4355C31.9629 13.4355 32.8906 14.6367 32.8906 16.6094V16.6289C32.8906 18.6016 31.9531 19.8027 30.4492 19.8027ZM39.5801 9.59766C40.459 9.59766 41.1816 8.89453 41.1816 8.01562C41.1816 7.12695 40.459 6.42383 39.5801 6.42383C38.7012 6.42383 37.9688 7.12695 37.9688 8.01562C37.9688 8.89453 38.7012 9.59766 39.5801 9.59766ZM38.1445 22H40.9961V11.248H38.1445V22ZM48.6035 22.2246C51.4062 22.2246 53.0859 20.7207 53.3789 18.377L53.3887 18.3184H50.752L50.7324 18.3574C50.4785 19.4316 49.7852 19.9883 48.6133 19.9883C47.0898 19.9883 46.2402 18.7871 46.2402 16.6094V16.5898C46.2402 14.4414 47.0801 13.25 48.6133 13.25C49.834 13.25 50.5469 13.9336 50.7324 14.9785L50.7422 14.998H53.3984V14.9688C53.1445 12.5664 51.4551 11.0137 48.6035 11.0137C45.2344 11.0137 43.3398 13.0547 43.3398 16.5898V16.6094C43.3398 20.1836 45.2441 22.2246 48.6035 22.2246ZM67.1289 22.166C69.8145 22.166 71.4941 20.0664 71.4941 16.6289V16.6094C71.4941 13.1523 69.8535 11.0723 67.1289 11.0723C65.6543 11.0723 64.4531 11.7949 63.9062 12.9668H63.7305V7.13672H60.8789V22H63.7305V20.3301H63.9062C64.4629 21.4922 65.6055 22.166 67.1289 22.166ZM66.1523 19.8027C64.6484 19.8027 63.7012 18.6113 63.7012 16.6387V16.6191C63.7012 14.6465 64.6582 13.4355 66.1523 13.4355C67.6562 13.4355 68.5938 14.6465 68.5938 16.6094V16.6289C68.5938 18.6113 67.666 19.8027 66.1523 19.8027ZM76.7383 22.166C78.1445 22.166 79.2773 21.5703 79.8242 20.5742H80V22H82.8125V14.6562C82.8125 12.3613 81.2012 11.0137 78.3496 11.0137C75.6445 11.0137 73.8672 12.2637 73.6426 14.1484L73.6328 14.2363H76.2695L76.2891 14.1973C76.5137 13.5625 77.168 13.2012 78.1934 13.2012C79.3652 13.2012 80 13.7285 80 14.6562V15.5449L77.4023 15.7012C74.7266 15.8574 73.2324 16.9902 73.2324 18.9238V18.9434C73.2324 20.8965 74.6875 22.166 76.7383 22.166ZM76.0156 18.7676V18.748C76.0156 17.9668 76.6113 17.5078 77.832 17.4297L80 17.293V18.084C80 19.2168 79.0137 20.0859 77.6953 20.0859C76.709 20.0859 76.0156 19.5879 76.0156 18.7676ZM89.8828 22.2246C92.6367 22.2246 94.5996 20.8379 94.5996 18.709V18.6992C94.5996 17.1074 93.5938 16.209 91.4453 15.75L89.6582 15.3691C88.5449 15.125 88.1445 14.793 88.1445 14.2168V14.207C88.1445 13.4844 88.8477 13.0254 89.834 13.0254C90.8984 13.0254 91.5332 13.5625 91.6895 14.1387L91.6992 14.1875H94.3457V14.1484C94.2285 12.4199 92.666 11.0137 89.8438 11.0137C87.1582 11.0137 85.3613 12.3613 85.3613 14.3828V14.3926C85.3613 16.0039 86.377 17.0098 88.4277 17.4492L90.2246 17.8301C91.3184 18.0742 91.748 18.4355 91.748 19.0117V19.0312C91.748 19.7441 91.0059 20.2129 89.9121 20.2129C88.7891 20.2129 88.1348 19.7344 87.9102 19.0703L87.8906 19.0312H85.0879L85.0977 19.0703C85.3027 20.916 86.9629 22.2246 89.8828 22.2246ZM101.66 22.2246C104.805 22.2246 106.191 20.4082 106.523 19.0605L106.543 18.9629H103.887L103.857 19.0215C103.662 19.4316 102.969 20.0957 101.719 20.0957C100.205 20.0957 99.2578 19.0703 99.2285 17.3027H106.631V16.4141C106.631 13.1621 104.678 11.0137 101.543 11.0137C98.4082 11.0137 96.4062 13.2109 96.4062 16.6289V16.6387C96.4062 20.0859 98.3887 22.2246 101.66 22.2246ZM101.592 13.1523C102.832 13.1523 103.721 13.9531 103.896 15.5156H99.2578C99.4336 13.9922 100.352 13.1523 101.592 13.1523ZM112.803 22.166C114.316 22.166 115.459 21.4922 116.016 20.3301H116.191V22H119.043V7.13672H116.191V12.9668H116.016C115.479 11.7949 114.277 11.0723 112.803 11.0723C110.078 11.0723 108.438 13.1523 108.438 16.6094V16.6289C108.438 20.0664 110.117 22.166 112.803 22.166ZM113.77 19.8027C112.266 19.8027 111.338 18.6113 111.338 16.6289V16.6094C111.338 14.6465 112.266 13.4355 113.77 13.4355C115.273 13.4355 116.221 14.6465 116.221 16.6191V16.6387C116.221 18.6113 115.283 19.8027 113.77 19.8027ZM130.986 22.166C132.5 22.166 133.643 21.4922 134.199 20.3301H134.375V22H137.227V7.13672H134.375V12.9668H134.199C133.662 11.7949 132.461 11.0723 130.986 11.0723C128.262 11.0723 126.621 13.1523 126.621 16.6094V16.6289C126.621 20.0664 128.301 22.166 130.986 22.166ZM131.953 19.8027C130.449 19.8027 129.521 18.6113 129.521 16.6289V16.6094C129.521 14.6465 130.449 13.4355 131.953 13.4355C133.457 13.4355 134.404 14.6465 134.404 16.6191V16.6387C134.404 18.6113 133.467 19.8027 131.953 19.8027ZM141.631 9.59766C142.51 9.59766 143.232 8.89453 143.232 8.01562C143.232 7.12695 142.51 6.42383 141.631 6.42383C140.752 6.42383 140.02 7.12695 140.02 8.01562C140.02 8.89453 140.752 9.59766 141.631 9.59766ZM140.195 22H143.047V11.248H140.195V22ZM150.195 22.2246C152.949 22.2246 154.912 20.8379 154.912 18.709V18.6992C154.912 17.1074 153.906 16.209 151.758 15.75L149.971 15.3691C148.857 15.125 148.457 14.793 148.457 14.2168V14.207C148.457 13.4844 149.16 13.0254 150.146 13.0254C151.211 13.0254 151.846 13.5625 152.002 14.1387L152.012 14.1875H154.658V14.1484C154.541 12.4199 152.979 11.0137 150.156 11.0137C147.471 11.0137 145.674 12.3613 145.674 14.3828V14.3926C145.674 16.0039 146.689 17.0098 148.74 17.4492L150.537 17.8301C151.631 18.0742 152.061 18.4355 152.061 19.0117V19.0312C152.061 19.7441 151.318 20.2129 150.225 20.2129C149.102 20.2129 148.447 19.7344 148.223 19.0703L148.203 19.0312H145.4L145.41 19.0703C145.615 20.916 147.275 22.2246 150.195 22.2246ZM161.982 22.2246C164.785 22.2246 166.465 20.7207 166.758 18.377L166.768 18.3184H164.131L164.111 18.3574C163.857 19.4316 163.164 19.9883 161.992 19.9883C160.469 19.9883 159.619 18.7871 159.619 16.6094V16.5898C159.619 14.4414 160.459 13.25 161.992 13.25C163.213 13.25 163.926 13.9336 164.111 14.9785L164.121 14.998H166.777V14.9688C166.523 12.5664 164.834 11.0137 161.982 11.0137C158.613 11.0137 156.719 13.0547 156.719 16.5898V16.6094C156.719 20.1836 158.623 22.2246 161.982 22.2246ZM172.559 22.2246C174.092 22.2246 175.186 21.5117 175.674 20.3398H175.85V22H178.701V11.248H175.85V17.459C175.85 18.9141 175.088 19.8613 173.682 19.8613C172.334 19.8613 171.758 19.0703 171.758 17.5469V11.248H168.906V18.2012C168.906 20.7598 170.146 22.2246 172.559 22.2246ZM185.84 22.2246C188.594 22.2246 190.557 20.8379 190.557 18.709V18.6992C190.557 17.1074 189.551 16.209 187.402 15.75L185.615 15.3691C184.502 15.125 184.102 14.793 184.102 14.2168V14.207C184.102 13.4844 184.805 13.0254 185.791 13.0254C186.855 13.0254 187.49 13.5625 187.646 14.1387L187.656 14.1875H190.303V14.1484C190.186 12.4199 188.623 11.0137 185.801 11.0137C183.115 11.0137 181.318 12.3613 181.318 14.3828V14.3926C181.318 16.0039 182.334 17.0098 184.385 17.4492L186.182 17.8301C187.275 18.0742 187.705 18.4355 187.705 19.0117V19.0312C187.705 19.7441 186.963 20.2129 185.869 20.2129C184.746 20.2129 184.092 19.7344 183.867 19.0703L183.848 19.0312H181.045L181.055 19.0703C181.26 20.916 182.92 22.2246 185.84 22.2246ZM196.973 22.2246C199.727 22.2246 201.689 20.8379 201.689 18.709V18.6992C201.689 17.1074 200.684 16.209 198.535 15.75L196.748 15.3691C195.635 15.125 195.234 14.793 195.234 14.2168V14.207C195.234 13.4844 195.938 13.0254 196.924 13.0254C197.988 13.0254 198.623 13.5625 198.779 14.1387L198.789 14.1875H201.436V14.1484C201.318 12.4199 199.756 11.0137 196.934 11.0137C194.248 11.0137 192.451 12.3613 192.451 14.3828V14.3926C192.451 16.0039 193.467 17.0098 195.518 17.4492L197.314 17.8301C198.408 18.0742 198.838 18.4355 198.838 19.0117V19.0312C198.838 19.7441 198.096 20.2129 197.002 20.2129C195.879 20.2129 195.225 19.7344 195 19.0703L194.98 19.0312H192.178L192.188 19.0703C192.393 20.916 194.053 22.2246 196.973 22.2246ZM205.479 9.59766C206.357 9.59766 207.08 8.89453 207.08 8.01562C207.08 7.12695 206.357 6.42383 205.479 6.42383C204.6 6.42383 203.867 7.12695 203.867 8.01562C203.867 8.89453 204.6 9.59766 205.479 9.59766ZM204.043 22H206.895V11.248H204.043V22ZM214.541 22.2246C217.852 22.2246 219.844 20.1348 219.844 16.6289V16.6094C219.844 13.1328 217.822 11.0137 214.541 11.0137C211.26 11.0137 209.238 13.1426 209.238 16.6094V16.6289C209.238 20.125 211.23 22.2246 214.541 22.2246ZM214.541 19.9883C213.018 19.9883 212.158 18.748 212.158 16.6289V16.6094C212.158 14.5098 213.027 13.25 214.541 13.25C216.045 13.25 216.924 14.5098 216.924 16.6094V16.6289C216.924 18.748 216.055 19.9883 214.541 19.9883ZM222.168 22H225.02V15.7793C225.02 14.3242 225.82 13.377 227.139 13.377C228.486 13.377 229.111 14.1777 229.111 15.6914V22H231.963V15.0469C231.963 12.4785 230.674 11.0137 228.281 11.0137C226.748 11.0137 225.684 11.7461 225.195 12.9082H225.02V11.248H222.168V22ZM239.004 22.2246C241.758 22.2246 243.721 20.8379 243.721 18.709V18.6992C243.721 17.1074 242.715 16.209 240.566 15.75L238.779 15.3691C237.666 15.125 237.266 14.793 237.266 14.2168V14.207C237.266 13.4844 237.969 13.0254 238.955 13.0254C240.02 13.0254 240.654 13.5625 240.811 14.1387L240.82 14.1875H243.467V14.1484C243.35 12.4199 241.787 11.0137 238.965 11.0137C236.279 11.0137 234.482 12.3613 234.482 14.3828V14.3926C234.482 16.0039 235.498 17.0098 237.549 17.4492L239.346 17.8301C240.439 18.0742 240.869 18.4355 240.869 19.0117V19.0312C240.869 19.7441 240.127 20.2129 239.033 20.2129C237.91 20.2129 237.256 19.7344 237.031 19.0703L237.012 19.0312H234.209L234.219 19.0703C234.424 20.916 236.084 22.2246 239.004 22.2246Z" fill="#353340" fill-opacity="0.6"/>
<path d="M1690.75 19.3613C1694.26 19.3613 1696.43 17.5938 1696.43 14.8008V14.791C1696.43 12.5938 1695.13 11.4023 1692.15 10.7871L1690.66 10.4844C1689 10.1426 1688.32 9.5957 1688.32 8.67773V8.66797C1688.32 7.61328 1689.28 6.94922 1690.74 6.93945C1692.22 6.93945 1693.2 7.64258 1693.37 8.64844L1693.38 8.76562H1696.16L1696.15 8.63867C1695.96 6.28516 1694.03 4.54688 1690.74 4.54688C1687.61 4.54688 1685.37 6.27539 1685.37 8.89258V8.90234C1685.37 11.041 1686.63 12.4082 1689.56 13.0039L1691.04 13.3066C1692.79 13.668 1693.48 14.1855 1693.48 15.1133V15.123C1693.48 16.207 1692.4 16.959 1690.83 16.959C1689.18 16.959 1688.03 16.2461 1687.93 15.1914L1687.92 15.0938H1685.07L1685.08 15.25C1685.25 17.75 1687.38 19.3613 1690.75 19.3613ZM1699.04 19H1701.89V12.7793C1701.89 11.3242 1702.69 10.377 1704.01 10.377C1705.36 10.377 1705.98 11.1777 1705.98 12.6914V19H1708.83V12.0469C1708.83 9.47852 1707.54 8.01367 1705.15 8.01367C1703.62 8.01367 1702.55 8.74609 1702.07 9.9082H1701.89V4.13672H1699.04V19ZM1714.53 19.166C1715.93 19.166 1717.07 18.5703 1717.61 17.5742H1717.79V19H1720.6V11.6562C1720.6 9.36133 1718.99 8.01367 1716.14 8.01367C1713.43 8.01367 1711.66 9.26367 1711.43 11.1484L1711.42 11.2363H1714.06L1714.08 11.1973C1714.3 10.5625 1714.96 10.2012 1715.98 10.2012C1717.15 10.2012 1717.79 10.7285 1717.79 11.6562V12.5449L1715.19 12.7012C1712.52 12.8574 1711.02 13.9902 1711.02 15.9238V15.9434C1711.02 17.8965 1712.48 19.166 1714.53 19.166ZM1713.8 15.7676V15.748C1713.8 14.9668 1714.4 14.5078 1715.62 14.4297L1717.79 14.293V15.084C1717.79 16.2168 1716.8 17.0859 1715.48 17.0859C1714.5 17.0859 1713.8 16.5879 1713.8 15.7676ZM1723.39 19H1726.25V12.9844C1726.25 11.4609 1727.27 10.5332 1728.89 10.5332C1729.33 10.5332 1729.77 10.6016 1730.2 10.6992V8.20898C1729.92 8.13086 1729.52 8.07227 1729.14 8.07227C1727.74 8.07227 1726.76 8.75586 1726.42 9.91797H1726.25V8.24805H1723.39V19ZM1736.58 19.2246C1739.72 19.2246 1741.11 17.4082 1741.44 16.0605L1741.46 15.9629H1738.8L1738.78 16.0215C1738.58 16.4316 1737.89 17.0957 1736.64 17.0957C1735.12 17.0957 1734.18 16.0703 1734.15 14.3027H1741.55V13.4141C1741.55 10.1621 1739.6 8.01367 1736.46 8.01367C1733.33 8.01367 1731.32 10.2109 1731.32 13.6289V13.6387C1731.32 17.0859 1733.31 19.2246 1736.58 19.2246ZM1736.51 10.1523C1737.75 10.1523 1738.64 10.9531 1738.81 12.5156H1734.18C1734.35 10.9922 1735.27 10.1523 1736.51 10.1523ZM1750.32 22.7891C1752.97 22.7891 1754.39 21.832 1755.35 18.9902L1759.01 8.24805H1756L1753.75 16.3926H1753.55L1751.29 8.24805H1748.16L1751.94 19L1751.84 19.4102C1751.64 20.25 1751.05 20.6406 1750.04 20.6406C1749.77 20.6406 1749.49 20.6309 1749.29 20.6113V22.7598C1749.62 22.7793 1749.99 22.7891 1750.32 22.7891ZM1765.32 19.2246C1768.63 19.2246 1770.62 17.1348 1770.62 13.6289V13.6094C1770.62 10.1328 1768.6 8.01367 1765.32 8.01367C1762.04 8.01367 1760.02 10.1426 1760.02 13.6094V13.6289C1760.02 17.125 1762.01 19.2246 1765.32 19.2246ZM1765.32 16.9883C1763.79 16.9883 1762.94 15.748 1762.94 13.6289V13.6094C1762.94 11.5098 1763.8 10.25 1765.32 10.25C1766.82 10.25 1767.7 11.5098 1767.7 13.6094V13.6289C1767.7 15.748 1766.83 16.9883 1765.32 16.9883ZM1776.5 19.2246C1778.03 19.2246 1779.13 18.5117 1779.62 17.3398H1779.79V19H1782.64V8.24805H1779.79V14.459C1779.79 15.9141 1779.03 16.8613 1777.62 16.8613C1776.28 16.8613 1775.7 16.0703 1775.7 14.5469V8.24805H1772.85V15.2012C1772.85 17.7598 1774.09 19.2246 1776.5 19.2246ZM1785.5 19H1788.36V12.9844C1788.36 11.4609 1789.38 10.5332 1791 10.5332C1791.44 10.5332 1791.88 10.6016 1792.31 10.6992V8.20898C1792.03 8.13086 1791.63 8.07227 1791.25 8.07227C1789.85 8.07227 1788.87 8.75586 1788.53 9.91797H1788.36V8.24805H1785.5V19ZM1799.37 22.5645H1802.22V17.2812H1802.4C1802.95 18.4531 1804.15 19.166 1805.62 19.166C1808.35 19.166 1809.99 17.0859 1809.99 13.6289V13.6094C1809.99 10.1816 1808.31 8.07227 1805.62 8.07227C1804.1 8.07227 1802.96 8.75586 1802.4 9.9082H1802.22V8.24805H1799.37V22.5645ZM1804.64 16.8027C1803.15 16.8027 1802.19 15.6016 1802.19 13.6289V13.6094C1802.19 11.6367 1803.14 10.4355 1804.64 10.4355C1806.16 10.4355 1807.09 11.6367 1807.09 13.6094V13.6289C1807.09 15.6016 1806.15 16.8027 1804.64 16.8027ZM1812.42 19H1815.27V12.7793C1815.27 11.3242 1816.07 10.377 1817.39 10.377C1818.74 10.377 1819.36 11.1777 1819.36 12.6914V19H1822.21V12.0469C1822.21 9.47852 1820.92 8.01367 1818.53 8.01367C1817 8.01367 1815.93 8.74609 1815.45 9.9082H1815.27V4.13672H1812.42V19ZM1829.75 19.2246C1833.06 19.2246 1835.05 17.1348 1835.05 13.6289V13.6094C1835.05 10.1328 1833.03 8.01367 1829.75 8.01367C1826.47 8.01367 1824.45 10.1426 1824.45 13.6094V13.6289C1824.45 17.125 1826.44 19.2246 1829.75 19.2246ZM1829.75 16.9883C1828.23 16.9883 1827.37 15.748 1827.37 13.6289V13.6094C1827.37 11.5098 1828.24 10.25 1829.75 10.25C1831.26 10.25 1832.13 11.5098 1832.13 13.6094V13.6289C1832.13 15.748 1831.27 16.9883 1829.75 16.9883ZM1841.84 19.0391C1842.39 19.0391 1842.92 18.9805 1843.27 18.9121V16.793C1842.99 16.8223 1842.8 16.8418 1842.43 16.8418C1841.46 16.8418 1841.05 16.4121 1841.05 15.4453V10.3965H1843.27V8.24805H1841.05V5.67969H1838.17V8.24805H1836.51V10.3965H1838.17V16.0996C1838.17 18.1895 1839.22 19.0391 1841.84 19.0391ZM1850.34 19.2246C1853.65 19.2246 1855.64 17.1348 1855.64 13.6289V13.6094C1855.64 10.1328 1853.62 8.01367 1850.34 8.01367C1847.06 8.01367 1845.04 10.1426 1845.04 13.6094V13.6289C1845.04 17.125 1847.03 19.2246 1850.34 19.2246ZM1850.34 16.9883C1848.81 16.9883 1847.96 15.748 1847.96 13.6289V13.6094C1847.96 11.5098 1848.82 10.25 1850.34 10.25C1851.84 10.25 1852.72 11.5098 1852.72 13.6094V13.6289C1852.72 15.748 1851.85 16.9883 1850.34 16.9883ZM1862.24 19.2246C1865 19.2246 1866.96 17.8379 1866.96 15.709V15.6992C1866.96 14.1074 1865.95 13.209 1863.8 12.75L1862.02 12.3691C1860.9 12.125 1860.5 11.793 1860.5 11.2168V11.207C1860.5 10.4844 1861.21 10.0254 1862.19 10.0254C1863.26 10.0254 1863.89 10.5625 1864.05 11.1387L1864.06 11.1875H1866.71V11.1484C1866.59 9.41992 1865.03 8.01367 1862.2 8.01367C1859.52 8.01367 1857.72 9.36133 1857.72 11.3828V11.3926C1857.72 13.0039 1858.74 14.0098 1860.79 14.4492L1862.58 14.8301C1863.68 15.0742 1864.11 15.4355 1864.11 16.0117V16.0312C1864.11 16.7441 1863.37 17.2129 1862.27 17.2129C1861.15 17.2129 1860.49 16.7344 1860.27 16.0703L1860.25 16.0312H1857.45L1857.46 16.0703C1857.66 17.916 1859.32 19.2246 1862.24 19.2246ZM1876.49 19H1879.48L1881.38 11.5H1881.56L1883.48 19H1886.51L1889.37 8.24805H1886.55L1884.95 16.0312H1884.77L1882.88 8.24805H1880.16L1878.28 16.0312H1878.1L1876.5 8.24805H1873.62L1876.49 19ZM1892.86 6.59766C1893.74 6.59766 1894.46 5.89453 1894.46 5.01562C1894.46 4.12695 1893.74 3.42383 1892.86 3.42383C1891.98 3.42383 1891.25 4.12695 1891.25 5.01562C1891.25 5.89453 1891.98 6.59766 1892.86 6.59766ZM1891.42 19H1894.27V8.24805H1891.42V19ZM1901.61 19.0391C1902.15 19.0391 1902.68 18.9805 1903.03 18.9121V16.793C1902.76 16.8223 1902.56 16.8418 1902.19 16.8418C1901.23 16.8418 1900.82 16.4121 1900.82 15.4453V10.3965H1903.03V8.24805H1900.82V5.67969H1897.94V8.24805H1896.28V10.3965H1897.94V16.0996C1897.94 18.1895 1898.99 19.0391 1901.61 19.0391ZM1905.5 19H1908.36V12.7793C1908.36 11.3242 1909.16 10.377 1910.47 10.377C1911.82 10.377 1912.45 11.1777 1912.45 12.6914V19H1915.3V12.0469C1915.3 9.47852 1914.01 8.01367 1911.62 8.01367C1910.08 8.01367 1909.02 8.74609 1908.53 9.9082H1908.36V4.13672H1905.5V19ZM1927.99 19.2246C1931.3 19.2246 1933.3 17.1348 1933.3 13.6289V13.6094C1933.3 10.1328 1931.28 8.01367 1927.99 8.01367C1924.71 8.01367 1922.69 10.1426 1922.69 13.6094V13.6289C1922.69 17.125 1924.68 19.2246 1927.99 19.2246ZM1927.99 16.9883C1926.47 16.9883 1925.61 15.748 1925.61 13.6289V13.6094C1925.61 11.5098 1926.48 10.25 1927.99 10.25C1929.5 10.25 1930.38 11.5098 1930.38 13.6094V13.6289C1930.38 15.748 1929.51 16.9883 1927.99 16.9883ZM1940.08 19.0391C1940.63 19.0391 1941.16 18.9805 1941.51 18.9121V16.793C1941.24 16.8223 1941.04 16.8418 1940.67 16.8418C1939.7 16.8418 1939.29 16.4121 1939.29 15.4453V10.3965H1941.51V8.24805H1939.29V5.67969H1936.41V8.24805H1934.75V10.3965H1936.41V16.0996C1936.41 18.1895 1937.47 19.0391 1940.08 19.0391ZM1943.98 19H1946.83V12.7793C1946.83 11.3242 1947.63 10.377 1948.95 10.377C1950.3 10.377 1950.92 11.1777 1950.92 12.6914V19H1953.78V12.0469C1953.78 9.47852 1952.49 8.01367 1950.09 8.01367C1948.56 8.01367 1947.5 8.74609 1947.01 9.9082H1946.83V4.13672H1943.98V19ZM1961.27 19.2246C1964.41 19.2246 1965.8 17.4082 1966.13 16.0605L1966.15 15.9629H1963.49L1963.46 16.0215C1963.27 16.4316 1962.57 17.0957 1961.32 17.0957C1959.81 17.0957 1958.86 16.0703 1958.83 14.3027H1966.24V13.4141C1966.24 10.1621 1964.28 8.01367 1961.15 8.01367C1958.01 8.01367 1956.01 10.2109 1956.01 13.6289V13.6387C1956.01 17.0859 1957.99 19.2246 1961.27 19.2246ZM1961.2 10.1523C1962.44 10.1523 1963.33 10.9531 1963.5 12.5156H1958.86C1959.04 10.9922 1959.96 10.1523 1961.2 10.1523ZM1968.57 19H1971.42V12.9844C1971.42 11.4609 1972.45 10.5332 1974.07 10.5332C1974.51 10.5332 1974.95 10.6016 1975.38 10.6992V8.20898C1975.09 8.13086 1974.69 8.07227 1974.31 8.07227C1972.92 8.07227 1971.94 8.75586 1971.6 9.91797H1971.42V8.24805H1968.57V19ZM1981.3 19.2246C1984.06 19.2246 1986.02 17.8379 1986.02 15.709V15.6992C1986.02 14.1074 1985.02 13.209 1982.87 12.75L1981.08 12.3691C1979.97 12.125 1979.57 11.793 1979.57 11.2168V11.207C1979.57 10.4844 1980.27 10.0254 1981.26 10.0254C1982.32 10.0254 1982.96 10.5625 1983.11 11.1387L1983.12 11.1875H1985.77V11.1484C1985.65 9.41992 1984.09 8.01367 1981.27 8.01367C1978.58 8.01367 1976.78 9.36133 1976.78 11.3828V11.3926C1976.78 13.0039 1977.8 14.0098 1979.85 14.4492L1981.65 14.8301C1982.74 15.0742 1983.17 15.4355 1983.17 16.0117V16.0312C1983.17 16.7441 1982.43 17.2129 1981.33 17.2129C1980.21 17.2129 1979.56 16.7344 1979.33 16.0703L1979.31 16.0312H1976.51L1976.52 16.0703C1976.72 17.916 1978.38 19.2246 1981.3 19.2246Z" fill="#353340" fill-opacity="0.6"/>
<path d="M563.709 193H572.928V190.568H566.658V178.908H563.709V193ZM576.775 180.598C577.654 180.598 578.377 179.895 578.377 179.016C578.377 178.127 577.654 177.424 576.775 177.424C575.896 177.424 575.164 178.127 575.164 179.016C575.164 179.895 575.896 180.598 576.775 180.598ZM575.34 193H578.191V182.248H575.34V193ZM585.34 193.225C588.094 193.225 590.057 191.838 590.057 189.709V189.699C590.057 188.107 589.051 187.209 586.902 186.75L585.115 186.369C584.002 186.125 583.602 185.793 583.602 185.217V185.207C583.602 184.484 584.305 184.025 585.291 184.025C586.355 184.025 586.99 184.562 587.146 185.139L587.156 185.188H589.803V185.148C589.686 183.42 588.123 182.014 585.301 182.014C582.615 182.014 580.818 183.361 580.818 185.383V185.393C580.818 187.004 581.834 188.01 583.885 188.449L585.682 188.83C586.775 189.074 587.205 189.436 587.205 190.012V190.031C587.205 190.744 586.463 191.213 585.369 191.213C584.246 191.213 583.592 190.734 583.367 190.07L583.348 190.031H580.545L580.555 190.07C580.76 191.916 582.42 193.225 585.34 193.225ZM596.795 193.039C597.342 193.039 597.869 192.98 598.221 192.912V190.793C597.947 190.822 597.752 190.842 597.381 190.842C596.414 190.842 596.004 190.412 596.004 189.445V184.396H598.221V182.248H596.004V179.68H593.123V182.248H591.463V184.396H593.123V190.1C593.123 192.189 594.178 193.039 596.795 193.039ZM605.242 193.225C608.387 193.225 609.773 191.408 610.105 190.061L610.125 189.963H607.469L607.439 190.021C607.244 190.432 606.551 191.096 605.301 191.096C603.787 191.096 602.84 190.07 602.811 188.303H610.213V187.414C610.213 184.162 608.26 182.014 605.125 182.014C601.99 182.014 599.988 184.211 599.988 187.629V187.639C599.988 191.086 601.971 193.225 605.242 193.225ZM605.174 184.152C606.414 184.152 607.303 184.953 607.479 186.516H602.84C603.016 184.992 603.934 184.152 605.174 184.152ZM612.547 193H615.398V186.779C615.398 185.324 616.199 184.377 617.518 184.377C618.865 184.377 619.49 185.178 619.49 186.691V193H622.342V186.047C622.342 183.479 621.053 182.014 618.66 182.014C617.127 182.014 616.062 182.746 615.574 183.908H615.398V182.248H612.547V193ZM634.725 193.039C635.271 193.039 635.799 192.98 636.15 192.912V190.793C635.877 190.822 635.682 190.842 635.311 190.842C634.344 190.842 633.934 190.412 633.934 189.445V184.396H636.15V182.248H633.934V179.68H631.053V182.248H629.393V184.396H631.053V190.1C631.053 192.189 632.107 193.039 634.725 193.039ZM643.221 193.225C646.531 193.225 648.523 191.135 648.523 187.629V187.609C648.523 184.133 646.502 182.014 643.221 182.014C639.939 182.014 637.918 184.143 637.918 187.609V187.629C637.918 191.125 639.91 193.225 643.221 193.225ZM643.221 190.988C641.697 190.988 640.838 189.748 640.838 187.629V187.609C640.838 185.51 641.707 184.25 643.221 184.25C644.725 184.25 645.604 185.51 645.604 187.609V187.629C645.604 189.748 644.734 190.988 643.221 190.988ZM656.004 193H658.855V186.516C658.855 185.285 659.637 184.377 660.75 184.377C661.863 184.377 662.518 185.051 662.518 186.203V193H665.369V186.389C665.369 185.227 666.111 184.377 667.264 184.377C668.455 184.377 669.041 185.031 669.041 186.33V193H671.893V185.617C671.893 183.4 670.555 182.014 668.416 182.014C666.912 182.014 665.662 182.805 665.174 183.996H664.998C664.559 182.756 663.475 182.014 662.01 182.014C660.604 182.014 659.49 182.717 659.031 183.928H658.855V182.248H656.004V193ZM678.211 193.225C679.744 193.225 680.838 192.512 681.326 191.34H681.502V193H684.354V182.248H681.502V188.459C681.502 189.914 680.74 190.861 679.334 190.861C677.986 190.861 677.41 190.07 677.41 188.547V182.248H674.559V189.201C674.559 191.76 675.799 193.225 678.211 193.225ZM691.492 193.225C694.246 193.225 696.209 191.838 696.209 189.709V189.699C696.209 188.107 695.203 187.209 693.055 186.75L691.268 186.369C690.154 186.125 689.754 185.793 689.754 185.217V185.207C689.754 184.484 690.457 184.025 691.443 184.025C692.508 184.025 693.143 184.562 693.299 185.139L693.309 185.188H695.955V185.148C695.838 183.42 694.275 182.014 691.453 182.014C688.768 182.014 686.971 183.361 686.971 185.383V185.393C686.971 187.004 687.986 188.01 690.037 188.449L691.834 188.83C692.928 189.074 693.357 189.436 693.357 190.012V190.031C693.357 190.744 692.615 191.213 691.521 191.213C690.398 191.213 689.744 190.734 689.52 190.07L689.5 190.031H686.697L686.707 190.07C686.912 191.916 688.572 193.225 691.492 193.225ZM699.998 180.598C700.877 180.598 701.6 179.895 701.6 179.016C701.6 178.127 700.877 177.424 699.998 177.424C699.119 177.424 698.387 178.127 698.387 179.016C698.387 179.895 699.119 180.598 699.998 180.598ZM698.562 193H701.414V182.248H698.562V193ZM709.021 193.225C711.824 193.225 713.504 191.721 713.797 189.377L713.807 189.318H711.17L711.15 189.357C710.896 190.432 710.203 190.988 709.031 190.988C707.508 190.988 706.658 189.787 706.658 187.609V187.59C706.658 185.441 707.498 184.25 709.031 184.25C710.252 184.25 710.965 184.934 711.15 185.979L711.16 185.998H713.816V185.969C713.562 183.566 711.873 182.014 709.021 182.014C705.652 182.014 703.758 184.055 703.758 187.59V187.609C703.758 191.184 705.662 193.225 709.021 193.225ZM725.662 193.039C726.209 193.039 726.736 192.98 727.088 192.912V190.793C726.814 190.822 726.619 190.842 726.248 190.842C725.281 190.842 724.871 190.412 724.871 189.445V184.396H727.088V182.248H724.871V179.68H721.99V182.248H720.33V184.396H721.99V190.1C721.99 192.189 723.045 193.039 725.662 193.039ZM734.158 193.225C737.469 193.225 739.461 191.135 739.461 187.629V187.609C739.461 184.133 737.439 182.014 734.158 182.014C730.877 182.014 728.855 184.143 728.855 187.609V187.629C728.855 191.125 730.848 193.225 734.158 193.225ZM734.158 190.988C732.635 190.988 731.775 189.748 731.775 187.629V187.609C731.775 185.51 732.645 184.25 734.158 184.25C735.662 184.25 736.541 185.51 736.541 187.609V187.629C736.541 189.748 735.672 190.988 734.158 190.988ZM746.531 196.779C749.783 196.779 751.844 195.188 751.844 192.668V182.248H748.992V184.006H748.855C748.279 182.795 747.127 182.072 745.652 182.072C742.898 182.072 741.229 184.201 741.229 187.365V187.385C741.229 190.441 742.898 192.531 745.604 192.531C747.098 192.531 748.23 191.916 748.826 190.783H749.002V192.785C749.002 194.035 748.113 194.748 746.59 194.748C745.32 194.748 744.578 194.318 744.422 193.693L744.412 193.654H741.59V193.703C741.824 195.529 743.553 196.779 746.531 196.779ZM746.57 190.344C745.027 190.344 744.148 189.143 744.148 187.375V187.355C744.148 185.588 745.037 184.387 746.57 184.387C748.104 184.387 749.031 185.588 749.031 187.355V187.375C749.031 189.143 748.113 190.344 746.57 190.344ZM759.422 193.225C762.566 193.225 763.953 191.408 764.285 190.061L764.305 189.963H761.648L761.619 190.021C761.424 190.432 760.73 191.096 759.48 191.096C757.967 191.096 757.02 190.07 756.99 188.303H764.393V187.414C764.393 184.162 762.439 182.014 759.305 182.014C756.17 182.014 754.168 184.211 754.168 187.629V187.639C754.168 191.086 756.15 193.225 759.422 193.225ZM759.354 184.152C760.594 184.152 761.482 184.953 761.658 186.516H757.02C757.195 184.992 758.113 184.152 759.354 184.152ZM771.189 193.039C771.736 193.039 772.264 192.98 772.615 192.912V190.793C772.342 190.822 772.146 190.842 771.775 190.842C770.809 190.842 770.398 190.412 770.398 189.445V184.396H772.615V182.248H770.398V179.68H767.518V182.248H765.857V184.396H767.518V190.1C767.518 192.189 768.572 193.039 771.189 193.039ZM775.086 193H777.938V186.779C777.938 185.324 778.738 184.377 780.057 184.377C781.404 184.377 782.029 185.178 782.029 186.691V193H784.881V186.047C784.881 183.479 783.592 182.014 781.199 182.014C779.666 182.014 778.602 182.746 778.113 183.908H777.938V178.137H775.086V193ZM792.371 193.225C795.516 193.225 796.902 191.408 797.234 190.061L797.254 189.963H794.598L794.568 190.021C794.373 190.432 793.68 191.096 792.43 191.096C790.916 191.096 789.969 190.07 789.939 188.303H797.342V187.414C797.342 184.162 795.389 182.014 792.254 182.014C789.119 182.014 787.117 184.211 787.117 187.629V187.639C787.117 191.086 789.1 193.225 792.371 193.225ZM792.303 184.152C793.543 184.152 794.432 184.953 794.607 186.516H789.969C790.145 184.992 791.062 184.152 792.303 184.152ZM799.676 193H802.527V186.984C802.527 185.461 803.553 184.533 805.174 184.533C805.613 184.533 806.053 184.602 806.482 184.699V182.209C806.199 182.131 805.799 182.072 805.418 182.072C804.021 182.072 803.045 182.756 802.703 183.918H802.527V182.248H799.676V193Z" fill="#353340" fill-opacity="0.6"/>
<path d="M1118.87 175.361C1123.03 175.361 1125.65 172.51 1125.65 167.959V167.939C1125.65 163.389 1123.02 160.547 1118.87 160.547C1114.72 160.547 1112.08 163.379 1112.08 167.939V167.959C1112.08 172.51 1114.68 175.361 1118.87 175.361ZM1118.87 172.861C1116.55 172.861 1115.09 170.938 1115.09 167.959V167.939C1115.09 164.951 1116.58 163.047 1118.87 163.047C1121.16 163.047 1122.64 164.951 1122.64 167.939V167.959C1122.64 170.938 1121.17 172.861 1118.87 172.861ZM1128.17 175H1131.02V168.984C1131.02 167.461 1132.04 166.533 1133.67 166.533C1134.11 166.533 1134.54 166.602 1134.97 166.699V164.209C1134.69 164.131 1134.29 164.072 1133.91 164.072C1132.51 164.072 1131.54 164.756 1131.2 165.918H1131.02V164.248H1128.17V175ZM1141.37 178.779C1144.62 178.779 1146.68 177.188 1146.68 174.668V164.248H1143.83V166.006H1143.7C1143.12 164.795 1141.97 164.072 1140.49 164.072C1137.74 164.072 1136.07 166.201 1136.07 169.365V169.385C1136.07 172.441 1137.74 174.531 1140.44 174.531C1141.94 174.531 1143.07 173.916 1143.67 172.783H1143.84V174.785C1143.84 176.035 1142.95 176.748 1141.43 176.748C1140.16 176.748 1139.42 176.318 1139.26 175.693L1139.25 175.654H1136.43V175.703C1136.66 177.529 1138.39 178.779 1141.37 178.779ZM1141.41 172.344C1139.87 172.344 1138.99 171.143 1138.99 169.375V169.355C1138.99 167.588 1139.88 166.387 1141.41 166.387C1142.94 166.387 1143.87 167.588 1143.87 169.355V169.375C1143.87 171.143 1142.95 172.344 1141.41 172.344ZM1152.46 175.166C1153.87 175.166 1155 174.57 1155.55 173.574H1155.73V175H1158.54V167.656C1158.54 165.361 1156.93 164.014 1154.08 164.014C1151.37 164.014 1149.59 165.264 1149.37 167.148L1149.36 167.236H1152L1152.02 167.197C1152.24 166.562 1152.89 166.201 1153.92 166.201C1155.09 166.201 1155.73 166.729 1155.73 167.656V168.545L1153.13 168.701C1150.45 168.857 1148.96 169.99 1148.96 171.924V171.943C1148.96 173.896 1150.41 175.166 1152.46 175.166ZM1151.74 171.768V171.748C1151.74 170.967 1152.34 170.508 1153.56 170.43L1155.73 170.293V171.084C1155.73 172.217 1154.74 173.086 1153.42 173.086C1152.44 173.086 1151.74 172.588 1151.74 171.768ZM1161.33 175H1164.18V168.779C1164.18 167.324 1164.98 166.377 1166.3 166.377C1167.65 166.377 1168.28 167.178 1168.28 168.691V175H1171.13V168.047C1171.13 165.479 1169.84 164.014 1167.45 164.014C1165.91 164.014 1164.85 164.746 1164.36 165.908H1164.18V164.248H1161.33V175ZM1175.35 162.598C1176.22 162.598 1176.95 161.895 1176.95 161.016C1176.95 160.127 1176.22 159.424 1175.35 159.424C1174.47 159.424 1173.73 160.127 1173.73 161.016C1173.73 161.895 1174.47 162.598 1175.35 162.598ZM1173.91 175H1176.76V164.248H1173.91V175ZM1179.39 175H1188.36V172.852H1183.07V172.676L1188.24 166.064V164.248H1179.47V166.396H1184.87V166.572L1179.39 173.359V175ZM1195.43 175.225C1198.58 175.225 1199.96 173.408 1200.3 172.061L1200.32 171.963H1197.66L1197.63 172.021C1197.44 172.432 1196.74 173.096 1195.49 173.096C1193.98 173.096 1193.03 172.07 1193 170.303H1200.4V169.414C1200.4 166.162 1198.45 164.014 1195.32 164.014C1192.18 164.014 1190.18 166.211 1190.18 169.629V169.639C1190.18 173.086 1192.16 175.225 1195.43 175.225ZM1195.37 166.152C1196.61 166.152 1197.49 166.953 1197.67 168.516H1193.03C1193.21 166.992 1194.12 166.152 1195.37 166.152ZM1210.82 175.166C1212.23 175.166 1213.36 174.57 1213.91 173.574H1214.09V175H1216.9V167.656C1216.9 165.361 1215.29 164.014 1212.44 164.014C1209.73 164.014 1207.95 165.264 1207.73 167.148L1207.72 167.236H1210.36L1210.38 167.197C1210.6 166.562 1211.25 166.201 1212.28 166.201C1213.45 166.201 1214.09 166.729 1214.09 167.656V168.545L1211.49 168.701C1208.81 168.857 1207.32 169.99 1207.32 171.924V171.943C1207.32 173.896 1208.77 175.166 1210.82 175.166ZM1210.1 171.768V171.748C1210.1 170.967 1210.7 170.508 1211.92 170.43L1214.09 170.293V171.084C1214.09 172.217 1213.1 173.086 1211.78 173.086C1210.79 173.086 1210.1 172.588 1210.1 171.768ZM1219.69 175H1222.54V168.779C1222.54 167.324 1223.34 166.377 1224.66 166.377C1226.01 166.377 1226.63 167.178 1226.63 168.691V175H1229.49V168.047C1229.49 165.479 1228.2 164.014 1225.8 164.014C1224.27 164.014 1223.21 164.746 1222.72 165.908H1222.54V164.248H1219.69V175ZM1242.13 175.225C1245.28 175.225 1246.66 173.408 1247 172.061L1247.02 171.963H1244.36L1244.33 172.021C1244.13 172.432 1243.44 173.096 1242.19 173.096C1240.68 173.096 1239.73 172.07 1239.7 170.303H1247.1V169.414C1247.1 166.162 1245.15 164.014 1242.02 164.014C1238.88 164.014 1236.88 166.211 1236.88 169.629V169.639C1236.88 173.086 1238.86 175.225 1242.13 175.225ZM1242.06 166.152C1243.3 166.152 1244.19 166.953 1244.37 168.516H1239.73C1239.91 166.992 1240.82 166.152 1242.06 166.152ZM1251.96 175H1255.16L1258.88 164.248H1255.88L1253.68 172.334H1253.5L1251.27 164.248H1248.22L1251.96 175ZM1265.08 175.225C1268.23 175.225 1269.61 173.408 1269.95 172.061L1269.96 171.963H1267.31L1267.28 172.021C1267.08 172.432 1266.39 173.096 1265.14 173.096C1263.63 173.096 1262.68 172.07 1262.65 170.303H1270.05V169.414C1270.05 166.162 1268.1 164.014 1264.96 164.014C1261.83 164.014 1259.83 166.211 1259.83 169.629V169.639C1259.83 173.086 1261.81 175.225 1265.08 175.225ZM1265.01 166.152C1266.25 166.152 1267.14 166.953 1267.32 168.516H1262.68C1262.86 166.992 1263.77 166.152 1265.01 166.152ZM1272.39 175H1275.24V168.779C1275.24 167.324 1276.04 166.377 1277.36 166.377C1278.71 166.377 1279.33 167.178 1279.33 168.691V175H1282.18V168.047C1282.18 165.479 1280.89 164.014 1278.5 164.014C1276.97 164.014 1275.9 164.746 1275.41 165.908H1275.24V164.248H1272.39V175ZM1289.41 175.039C1289.96 175.039 1290.48 174.98 1290.83 174.912V172.793C1290.56 172.822 1290.37 172.842 1289.99 172.842C1289.03 172.842 1288.62 172.412 1288.62 171.445V166.396H1290.83V164.248H1288.62V161.68H1285.74V164.248H1284.08V166.396H1285.74V172.1C1285.74 174.189 1286.79 175.039 1289.41 175.039Z" fill="#353340" fill-opacity="0.6"/>
</svg>
