<svg width="46" height="51" viewBox="0 0 46 51" fill="none" xmlns="http://www.w3.org/2000/svg">
<path d="M0.379883 30.7637L11.207 27.6845L22.227 30.7637L11.4341 34.2596L0.379883 30.7637Z" fill="#625E77"/>
<path d="M0 31.7373L10.8138 35.1079V50.2753L0 46.9048V31.7373Z" fill="#625E77"/>
<path d="M22.4004 31.7373L11.5866 35.1079V50.2753L22.4004 46.9048V31.7373Z" fill="#625E77"/>
<path d="M11.9004 10.9238L22.7275 7.84469L33.7475 10.9238L22.9547 14.4197L11.9004 10.9238Z" fill="#625E77"/>
<path d="M11.5205 11.8975L22.3343 15.268V30.4355L11.5205 27.0649V11.8975Z" fill="#625E77"/>
<path d="M33.9209 11.8975L23.1071 15.268V30.4355L33.9209 27.0649V11.8975Z" fill="#625E77"/>
<path d="M23.4209 30.7637L34.248 27.6845L45.2681 30.7637L34.4752 34.2596L23.4209 30.7637Z" fill="#625E77"/>
<path d="M23.041 31.7383L33.8548 35.1088V50.2763L23.041 46.9057V31.7383Z" fill="#625E77"/>
<path d="M45.4414 31.7383L34.6276 35.1088V50.2763L45.4414 46.9057V31.7383Z" fill="#625E77"/>
</svg>
